<?xml version="1.0" encoding="UTF-8"?>
<!DOCTYPE svg PUBLIC "-//W3C//DTD SVG 1.1//EN" "http://www.w3.org/Graphics/SVG/1.1/DTD/svg11.dtd">
<svg xmlns="http://www.w3.org/2000/svg" version="1.1" width="413px" height="413px" style="shape-rendering:geometricPrecision; text-rendering:geometricPrecision; image-rendering:optimizeQuality; fill-rule:evenodd; clip-rule:evenodd" xmlns:xlink="http://www.w3.org/1999/xlink">
<g><path style="opacity:1" fill="#fafafa" d="M -0.5,-0.5 C 137.167,-0.5 274.833,-0.5 412.5,-0.5C 412.5,137.167 412.5,274.833 412.5,412.5C 274.833,412.5 137.167,412.5 -0.5,412.5C -0.5,274.833 -0.5,137.167 -0.5,-0.5 Z"/></g>
<g><path style="opacity:1" fill="#070707" d="M 223.5,21.5 C 230.773,23.2232 236.94,26.8898 242,32.5C 255.174,50.0398 264.341,69.5398 269.5,91C 278.376,87.3661 287.376,83.6994 296.5,80C 311.672,74.2332 327.339,72.2332 343.5,74C 355.09,77.4229 362.424,84.9229 365.5,96.5C 365.571,107.88 363.571,118.88 359.5,129.5C 343.516,165.251 319.183,194.084 286.5,216C 281.932,218.452 277.265,220.618 272.5,222.5C 269.818,220.086 266.818,217.92 263.5,216C 265.547,214.927 267.547,213.761 269.5,212.5C 268.388,211.735 267.721,210.735 267.5,209.5C 268.872,208.488 270.205,207.488 271.5,206.5C 276.022,203.406 280.356,200.073 284.5,196.5C 276.672,190.749 268.339,185.749 259.5,181.5C 262.47,178.499 264.137,174.832 264.5,170.5C 265.5,170.5 266.5,170.5 267.5,170.5C 268.833,170.833 270.167,171.167 271.5,171.5C 280.37,174.523 288.703,178.689 296.5,184C 297.5,184.667 298.5,184.667 299.5,184C 315.915,167.649 329.249,149.149 339.5,128.5C 345.183,120.204 347.516,111.204 346.5,101.5C 344.65,96.1513 340.984,92.6513 335.5,91C 321.575,89.8127 308.242,92.1461 295.5,98C 288.348,101.077 281.348,104.41 274.5,108C 273.309,110.726 273.642,113.226 275.5,115.5C 275.646,119.519 275.979,123.519 276.5,127.5C 276.5,131.167 276.5,134.833 276.5,138.5C 271.703,138.523 267.036,139.189 262.5,140.5C 261.699,138.958 261.366,137.292 261.5,135.5C 260.92,129.588 259.586,123.921 257.5,118.5C 247.306,125.095 236.972,131.429 226.5,137.5C 225.761,137.631 225.094,137.464 224.5,137C 225.43,135.605 225.43,134.105 224.5,132.5C 225.51,129.817 226.51,127.151 227.5,124.5C 235.805,119.01 244.138,113.51 252.5,108C 255.942,105.344 256.276,102.51 253.5,99.5C 249.55,81.1525 242.384,64.1525 232,48.5C 219.311,33.5412 206.978,33.8745 195,49.5C 183.136,67.402 174.969,86.902 170.5,108C 170.639,109.301 171.305,110.134 172.5,110.5C 178.833,114.5 185.167,118.5 191.5,122.5C 192.436,123.974 193.77,124.974 195.5,125.5C 192.729,129.39 189.729,133.057 186.5,136.5C 179.728,134.076 173.395,130.743 167.5,126.5C 165.958,131.377 165.291,136.377 165.5,141.5C 164.732,142.263 164.232,143.263 164,144.5C 159.574,143.581 155.074,142.914 150.5,142.5C 150.5,140.167 150.5,137.833 150.5,135.5C 150.105,132.477 151.105,131.477 153.5,132.5C 154.826,127.896 155.326,123.229 155,118.5C 153.887,117.695 152.721,117.028 151.5,116.5C 132.536,106.957 112.536,100.624 91.5,97.5C 88.3586,96.6787 85.0252,96.1787 81.5,96C 84.8159,94.8698 88.3159,94.3698 92,94.5C 103.89,95.1749 115.39,97.1749 126.5,100.5C 128.972,98.6521 131.139,98.6521 133,100.5C 133.333,99.5 133.667,98.5 134,97.5C 137.411,98.2931 140.911,98.7931 144.5,99C 149.563,101.202 154.563,103.369 159.5,105.5C 159.491,103.692 159.991,102.025 161,100.5C 161.333,100.833 161.667,101.167 162,101.5C 163.285,98.0012 165.285,95.0012 168,92.5C 169.707,90.0912 170.54,87.4245 170.5,84.5C 172.942,84.8808 173.609,84.2141 172.5,82.5C 175.375,77.4277 177.042,72.261 177.5,67C 181.52,57.1298 187.187,48.2964 194.5,40.5C 195.662,38.1756 196.829,35.8422 198,33.5C 201.661,31.6708 204.495,29.0041 206.5,25.5C 212.179,24.4551 217.845,23.1217 223.5,21.5 Z"/></g>
<g><path style="opacity:1" fill="#6c6b6b" d="M 223.5,21.5 C 217.845,23.1217 212.179,24.4551 206.5,25.5C 198.183,28.295 191.35,33.295 186,40.5C 173.346,59.1443 164.513,79.4776 159.5,101.5C 157.447,101.598 155.78,100.931 154.5,99.5C 155.586,99.38 156.253,98.7133 156.5,97.5C 161.224,73.0548 171.558,51.3882 187.5,32.5C 196.204,22.3201 207.204,18.1535 220.5,20C 221.737,20.2321 222.737,20.7321 223.5,21.5 Z"/></g>
<g><path style="opacity:1" fill="#dddede" d="M 253.5,99.5 C 252.362,102.086 250.362,103.753 247.5,104.5C 246.338,103.322 245.338,102.155 244.5,101C 246.41,100.592 247.41,99.4251 247.5,97.5C 246.365,94.6619 245.031,91.4952 243.5,88C 243.645,87.228 243.978,86.5613 244.5,86C 240.969,80.1082 237.802,73.9415 235,67.5C 234.052,65.4299 232.552,63.9299 230.5,63C 231.451,62.2825 231.617,61.4491 231,60.5C 230,60.5 229,60.5 228,60.5C 222.347,51.8394 214.514,49.3394 204.5,53C 199.632,56.8365 195.132,61.0032 191,65.5C 187.39,75.1239 183.557,84.6239 179.5,94C 179.833,94.3333 180.167,94.6667 180.5,95C 177.66,100.026 174.994,105.193 172.5,110.5C 171.305,110.134 170.639,109.301 170.5,108C 174.969,86.902 183.136,67.402 195,49.5C 206.978,33.8745 219.311,33.5412 232,48.5C 242.384,64.1525 249.55,81.1525 253.5,99.5 Z"/></g>
<g><path style="opacity:1" fill="#f3f3f3" d="M 247.5,104.5 C 243.465,107.857 239.132,110.857 234.5,113.5C 234.586,112.504 234.252,111.671 233.5,111C 236.355,108.472 238.355,105.805 239.5,103C 237.951,101.786 236.785,100.286 236,98.5C 235.307,94.8276 234.14,91.3276 232.5,88C 232.645,87.228 232.978,86.5613 233.5,86C 230.738,84.6546 229.738,82.6546 230.5,80C 229.069,79.5348 227.903,78.7014 227,77.5C 226.139,73.1964 224.305,69.5297 221.5,66.5C 218.485,64.6496 215.318,62.983 212,61.5C 208.793,63.5084 205.793,65.175 203,66.5C 202.383,67.4491 202.549,68.2825 203.5,69C 196.259,75.328 191.925,82.9947 190.5,92C 189.167,92.6667 187.833,93.3333 186.5,94C 186.205,96.8142 186.205,99.6475 186.5,102.5C 185.448,102.351 184.448,102.517 183.5,103C 184.128,105.37 184.461,107.703 184.5,110C 183.939,111.676 182.939,113.009 181.5,114C 186.249,115.254 189.582,118.088 191.5,122.5C 185.167,118.5 178.833,114.5 172.5,110.5C 174.994,105.193 177.66,100.026 180.5,95C 180.167,94.6667 179.833,94.3333 179.5,94C 183.557,84.6239 187.39,75.1239 191,65.5C 195.132,61.0032 199.632,56.8365 204.5,53C 214.514,49.3394 222.347,51.8394 228,60.5C 229,60.5 230,60.5 231,60.5C 231.617,61.4491 231.451,62.2825 230.5,63C 232.552,63.9299 234.052,65.4299 235,67.5C 237.802,73.9415 240.969,80.1082 244.5,86C 243.978,86.5613 243.645,87.228 243.5,88C 245.031,91.4952 246.365,94.6619 247.5,97.5C 247.41,99.4251 246.41,100.592 244.5,101C 245.338,102.155 246.338,103.322 247.5,104.5 Z"/></g>
<g><path style="opacity:1" fill="#565556" d="M 92.5,80.5 C 101.194,81.0005 109.528,82.6672 117.5,85.5C 116.969,86.7954 115.636,87.4621 113.5,87.5C 111.833,87.5 110.167,87.5 108.5,87.5C 99.4773,84.9428 90.144,83.9428 80.5,84.5C 82.2922,83.6909 84.2922,83.1909 86.5,83C 84.7536,82.5291 83.087,81.8624 81.5,81C 85.1516,80.5014 88.8183,80.3347 92.5,80.5 Z"/></g>
<g><path style="opacity:1" fill="#262525" d="M 79.5,84.5 C 79.8333,84.5 80.1667,84.5 80.5,84.5C 90.144,83.9428 99.4773,84.9428 108.5,87.5C 103.158,89.8614 97.658,90.8614 92,90.5C 88.9243,91.2883 85.7577,91.7883 82.5,92C 79.5443,93.7993 76.5443,95.2993 73.5,96.5C 71.5165,96.3832 69.8498,97.0499 68.5,98.5C 65.7297,101.257 63.3963,104.257 61.5,107.5C 61.4503,104.802 62.4503,102.636 64.5,101C 64.1667,100.667 63.8333,100.333 63.5,100C 65.7454,97.7546 67.5787,95.9213 69,94.5C 72.3955,90.9349 75.8955,87.6015 79.5,84.5 Z"/></g>
<g><path style="opacity:1" fill="#373737" d="M 117.5,85.5 C 122.224,86.6304 126.891,87.9637 131.5,89.5C 132.167,89.5 132.5,89.8333 132.5,90.5C 132.062,90.4346 131.728,90.6012 131.5,91C 132.833,91.6667 134.167,92.3333 135.5,93C 127.597,93.0244 120.264,91.1911 113.5,87.5C 115.636,87.4621 116.969,86.7954 117.5,85.5 Z"/></g>
<g><path style="opacity:1" fill="#3a393a" d="M 79.5,84.5 C 75.8955,87.6015 72.3955,90.9349 69,94.5C 67.5787,95.9213 65.7454,97.7546 63.5,100C 63.8333,100.333 64.1667,100.667 64.5,101C 62.4503,102.636 61.4503,104.802 61.5,107.5C 61.5,112.167 61.5,116.833 61.5,121.5C 61.5649,126.909 60.2315,131.909 57.5,136.5C 58.2651,138.295 58.9318,140.128 59.5,142C 58.4859,143.641 57.4859,144.808 56.5,145.5C 54.7922,142.05 53.4588,138.383 52.5,134.5C 53.5817,133.406 54.2483,132.073 54.5,130.5C 53.5845,126.231 53.2512,122.064 53.5,118C 58.1075,110.735 60.1075,102.902 59.5,94.5C 64.7688,88.5322 71.4355,85.1989 79.5,84.5 Z"/></g>
<g><path style="opacity:1" fill="#151515" d="M 206.5,25.5 C 204.495,29.0041 201.661,31.6708 198,33.5C 196.829,35.8422 195.662,38.1756 194.5,40.5C 187.187,48.2964 181.52,57.1298 177.5,67C 177.042,72.261 175.375,77.4277 172.5,82.5C 173.609,84.2141 172.942,84.8808 170.5,84.5C 170.54,87.4245 169.707,90.0912 168,92.5C 165.285,95.0012 163.285,98.0012 162,101.5C 161.667,101.167 161.333,100.833 161,100.5C 159.991,102.025 159.491,103.692 159.5,105.5C 154.563,103.369 149.563,101.202 144.5,99C 140.911,98.7931 137.411,98.2931 134,97.5C 133.667,98.5 133.333,99.5 133,100.5C 131.139,98.6521 128.972,98.6521 126.5,100.5C 115.39,97.1749 103.89,95.1749 92,94.5C 88.3159,94.3698 84.8159,94.8698 81.5,96C 85.0252,96.1787 88.3586,96.6787 91.5,97.5C 86.8333,97.5 82.1667,97.5 77.5,97.5C 76.1667,97.1667 74.8333,96.8333 73.5,96.5C 76.5443,95.2993 79.5443,93.7993 82.5,92C 85.7577,91.7883 88.9243,91.2883 92,90.5C 97.658,90.8614 103.158,89.8614 108.5,87.5C 110.167,87.5 111.833,87.5 113.5,87.5C 120.264,91.1911 127.597,93.0244 135.5,93C 134.167,92.3333 132.833,91.6667 131.5,91C 131.728,90.6012 132.062,90.4346 132.5,90.5C 140.061,92.9472 147.394,95.9472 154.5,99.5C 155.78,100.931 157.447,101.598 159.5,101.5C 164.513,79.4776 173.346,59.1443 186,40.5C 191.35,33.295 198.183,28.295 206.5,25.5 Z"/></g>
<g><path style="opacity:1" fill="#eceded" d="M 187.5,32.5 C 171.558,51.3882 161.224,73.0548 156.5,97.5C 156.253,98.7133 155.586,99.38 154.5,99.5C 147.394,95.9472 140.061,92.9472 132.5,90.5C 132.5,89.8333 132.167,89.5 131.5,89.5C 132.274,88.8529 133.274,88.5195 134.5,88.5C 140.094,91.3181 145.761,92.4848 151.5,92C 153.125,91.1475 153.458,90.1475 152.5,89C 154.573,83.8886 156.573,78.7219 158.5,73.5C 156.867,71.6128 157.2,70.1128 159.5,69C 158.978,68.4387 158.645,67.772 158.5,67C 160.646,63.4017 162.313,59.5684 163.5,55.5C 168.522,48.4895 173.855,41.8229 179.5,35.5C 181.971,33.9294 184.637,32.9294 187.5,32.5 Z"/></g>
<g><path style="opacity:1" fill="#797878" d="M 92.5,80.5 C 88.8183,80.3347 85.1516,80.5014 81.5,81C 83.087,81.8624 84.7536,82.5291 86.5,83C 84.2922,83.1909 82.2922,83.6909 80.5,84.5C 80.1667,84.5 79.8333,84.5 79.5,84.5C 71.4355,85.1989 64.7688,88.5322 59.5,94.5C 56.376,96.7244 54.2094,99.7244 53,103.5C 52.2508,107.251 51.2508,110.918 50,114.5C 49.6667,113.833 49.3333,113.167 49,112.5C 48.5034,114.81 48.3367,117.143 48.5,119.5C 47.5184,116.038 47.185,112.371 47.5,108.5C 48.7133,100.74 52.0467,94.0733 57.5,88.5C 68.1467,80.9729 79.8133,78.3062 92.5,80.5 Z"/></g>
<g><path style="opacity:1" fill="#302e2f" d="M 310.5,78.5 C 313.187,78.3359 315.854,78.5026 318.5,79C 302.227,82.3133 286.727,87.8133 272,95.5C 271.5,95.1667 271,94.8333 270.5,94.5C 283.232,87.4606 296.565,82.1273 310.5,78.5 Z"/></g>
<g><path style="opacity:1" fill="#d7d7d7" d="M 346.5,101.5 C 345.683,103.969 345.183,106.635 345,109.5C 343.167,105.667 340.333,102.833 336.5,101C 327.536,99.252 318.37,99.752 309,102.5C 308.667,102.167 308.333,101.833 308,101.5C 301.904,104.322 295.738,106.989 289.5,109.5C 288.833,109.167 288.167,108.833 287.5,108.5C 286.304,108.846 286.304,109.346 287.5,110C 283.131,111.246 279.131,113.079 275.5,115.5C 273.642,113.226 273.309,110.726 274.5,108C 281.348,104.41 288.348,101.077 295.5,98C 308.242,92.1461 321.575,89.8127 335.5,91C 340.984,92.6513 344.65,96.1513 346.5,101.5 Z"/></g>
<g><path style="opacity:1" fill="#464546" d="M 59.5,94.5 C 60.1075,102.902 58.1075,110.735 53.5,118C 53.2512,122.064 53.5845,126.231 54.5,130.5C 54.2483,132.073 53.5817,133.406 52.5,134.5C 51.8333,133.5 51.1667,132.5 50.5,131.5C 49.2073,127.616 48.5407,123.616 48.5,119.5C 48.3367,117.143 48.5034,114.81 49,112.5C 49.3333,113.167 49.6667,113.833 50,114.5C 51.2508,110.918 52.2508,107.251 53,103.5C 54.2094,99.7244 56.376,96.7244 59.5,94.5 Z"/></g>
<g><path style="opacity:1" fill="#0c0c0c" d="M 73.5,96.5 C 74.8333,96.8333 76.1667,97.1667 77.5,97.5C 66.5733,101.687 62.9067,109.354 66.5,120.5C 66.2155,122.415 66.5489,124.081 67.5,125.5C 73.8949,143.383 83.3949,159.383 96,173.5C 103.063,180.395 109.897,187.395 116.5,194.5C 117.659,196.377 119.326,196.877 121.5,196C 124.647,193.578 127.647,190.911 130.5,188C 131.448,187.517 132.448,187.351 133.5,187.5C 136.146,189.479 138.479,191.812 140.5,194.5C 136.708,197.79 133.042,201.29 129.5,205C 133.612,207.712 137.278,210.878 140.5,214.5C 140.678,215.695 141.011,216.862 141.5,218C 139.452,220.189 138.119,222.689 137.5,225.5C 136.5,225.5 135.5,225.5 134.5,225.5C 128.808,223.237 123.308,220.57 118,217.5C 97.3643,237.501 81.3643,260.834 70,287.5C 67.9835,292.713 66.4835,298.046 65.5,303.5C 64.4265,309.115 64.2599,314.782 65,320.5C 65.8763,322.635 67.3763,323.969 69.5,324.5C 69.8333,325.5 70.5,326.167 71.5,326.5C 71.7822,327.778 72.4489,328.778 73.5,329.5C 66.7073,330.039 62.374,327.039 60.5,320.5C 59.2625,314.878 59.2625,309.211 60.5,303.5C 61.582,298.225 62.9153,292.892 64.5,287.5C 73.6346,265.879 85.8012,246.212 101,228.5C 102.675,226.409 103.175,224.242 102.5,222C 103.672,221.581 104.672,220.915 105.5,220C 104.461,218.383 103.461,217.217 102.5,216.5C 104.53,214.463 106.196,212.13 107.5,209.5C 106.812,208.145 105.812,207.145 104.5,206.5C 94.122,197.456 84.7887,187.456 76.5,176.5C 78.2303,175.088 79.7303,175.422 81,177.5C 81.0056,175.191 81.1723,173.025 81.5,171C 81.2351,168.849 80.2351,167.182 78.5,166C 79.8333,165.667 81.1667,165.333 82.5,165C 78.5311,157.553 74.1978,150.386 69.5,143.5C 66.6,136.123 63.9333,128.79 61.5,121.5C 61.5,116.833 61.5,112.167 61.5,107.5C 63.3963,104.257 65.7297,101.257 68.5,98.5C 69.8498,97.0499 71.5165,96.3832 73.5,96.5 Z"/></g>
<g><path style="opacity:1" fill="#d9d9d9" d="M 77.5,97.5 C 82.1667,97.5 86.8333,97.5 91.5,97.5C 112.536,100.624 132.536,106.957 151.5,116.5C 151.31,121.37 150.644,126.036 149.5,130.5C 149.543,126.107 149.043,125.774 148,129.5C 146.773,126.27 144.773,123.604 142,121.5C 137.345,120.157 133.179,117.99 129.5,115C 125.886,114.055 122.219,113.388 118.5,113C 116.668,112.252 115.001,111.252 113.5,110C 107.872,109.723 102.372,108.889 97,107.5C 92.2371,107.805 87.4038,107.805 82.5,107.5C 77.001,109.583 71.6676,110.917 66.5,111.5C 66.5,114.5 66.5,117.5 66.5,120.5C 62.9067,109.354 66.5733,101.687 77.5,97.5 Z"/></g>
<g><path style="opacity:1" fill="#f1f2f2" d="M 365.5,96.5 C 366.323,99.977 366.823,103.644 367,107.5C 367.582,104.332 368.582,103.999 370,106.5C 370.333,106.167 370.667,105.833 371,105.5C 371.55,108.263 372.383,110.93 373.5,113.5C 372.356,120.585 371.356,127.585 370.5,134.5C 368.103,137.717 366.936,141.383 367,145.5C 365.933,146.191 364.766,146.691 363.5,147C 364.081,147.893 364.415,148.893 364.5,150C 362.939,152.454 361.606,155.121 360.5,158C 360.833,158.333 361.167,158.667 361.5,159C 360.5,159.333 359.5,159.667 358.5,160C 359.711,161.113 359.711,162.28 358.5,163.5C 356.148,167.619 353.315,171.286 350,174.5C 349.333,177.167 348.667,179.833 348,182.5C 346.992,182.982 345.825,183.148 344.5,183C 344.833,183.333 345.167,183.667 345.5,184C 343.372,185.667 342.039,187.834 341.5,190.5C 340.264,191.246 338.93,191.579 337.5,191.5C 336.323,196.019 333.989,199.852 330.5,203C 331.815,204.395 331.481,205.395 329.5,206C 330.211,207.255 331.044,208.421 332,209.5C 333.614,208.977 335.114,207.644 336.5,205.5C 338.585,207.64 338.585,209.474 336.5,211C 338.305,213.403 340.638,215.07 343.5,216C 343.167,216.333 342.833,216.667 342.5,217C 343.191,218.067 343.691,219.234 344,220.5C 345.587,219.273 346.921,219.606 348,221.5C 348.333,220.5 348.667,219.5 349,218.5C 350.833,219.667 352.333,221.167 353.5,223C 349.241,224.577 348.408,227.411 351,231.5C 353.802,233.391 354.968,236.058 354.5,239.5C 345.583,225.35 334.583,213.016 321.5,202.5C 319.577,198.526 320.577,195.526 324.5,193.5C 324.291,192.914 323.957,192.414 323.5,192C 328,188.833 331.833,185 335,180.5C 338.652,175.874 341.819,170.874 344.5,165.5C 345.325,164.614 346.325,164.281 347.5,164.5C 347.343,163.127 347.51,161.793 348,160.5C 350.37,157.392 352.37,154.059 354,150.5C 354.333,150.833 354.667,151.167 355,151.5C 356.194,146.751 357.694,142.084 359.5,137.5C 358.787,134.904 358.787,132.237 359.5,129.5C 363.571,118.88 365.571,107.88 365.5,96.5 Z"/></g>
<g><path style="opacity:1" fill="#e7e7e7" d="M 149.5,130.5 C 149.5,131.833 149.5,133.167 149.5,134.5C 148.512,139.64 148.179,144.974 148.5,150.5C 149.5,150.5 150.5,150.5 151.5,150.5C 152.38,157.144 155.38,158.144 160.5,153.5C 161.386,152.675 161.719,151.675 161.5,150.5C 163.167,150.5 164.833,150.5 166.5,150.5C 166.605,146.681 167.438,143.014 169,139.5C 173.662,140.422 178.162,141.755 182.5,143.5C 185.208,143.247 187.542,142.247 189.5,140.5C 189.342,142.821 188.342,144.654 186.5,146C 183.833,146.667 181.167,146.667 178.5,146C 175.28,144.648 171.947,143.814 168.5,143.5C 167.995,149.82 166.161,155.82 163,161.5C 157.212,166.425 151.712,165.925 146.5,160C 145.869,152.054 145.369,143.887 145,135.5C 143.295,131.381 140.461,128.214 136.5,126C 120.739,119.476 104.406,114.976 87.5,112.5C 84.4996,112.428 81.1663,112.928 77.5,114C 75.6641,115.419 73.6641,116.586 71.5,117.5C 70.3553,121.625 69.022,124.292 67.5,125.5C 66.5489,124.081 66.2155,122.415 66.5,120.5C 66.5,117.5 66.5,114.5 66.5,111.5C 71.6676,110.917 77.001,109.583 82.5,107.5C 87.4038,107.805 92.2371,107.805 97,107.5C 102.372,108.889 107.872,109.723 113.5,110C 115.001,111.252 116.668,112.252 118.5,113C 122.219,113.388 125.886,114.055 129.5,115C 133.179,117.99 137.345,120.157 142,121.5C 144.773,123.604 146.773,126.27 148,129.5C 149.043,125.774 149.543,126.107 149.5,130.5 Z"/></g>
<g><path style="opacity:1" fill="#666464" d="M 253.5,99.5 C 256.276,102.51 255.942,105.344 252.5,108C 244.138,113.51 235.805,119.01 227.5,124.5C 225.99,125.836 224.323,127.003 222.5,128C 221.177,128.816 220.511,129.983 220.5,131.5C 219.833,130.833 219.167,130.167 218.5,129.5C 218.672,128.508 218.338,127.842 217.5,127.5C 222.912,122.613 228.579,117.946 234.5,113.5C 239.132,110.857 243.465,107.857 247.5,104.5C 250.362,103.753 252.362,102.086 253.5,99.5 Z"/></g>
<g><path style="opacity:1" fill="#f8f9f8" d="M 339.5,128.5 C 329.249,149.149 315.915,167.649 299.5,184C 298.5,184.667 297.5,184.667 296.5,184C 288.703,178.689 280.37,174.523 271.5,171.5C 270.972,170.279 270.305,169.113 269.5,168C 271.844,167.163 273.844,165.829 275.5,164C 275.167,163.667 274.833,163.333 274.5,163C 275.891,161.98 277.391,161.147 279,160.5C 279.96,157.367 280.793,154.2 281.5,151C 280.218,145.64 280.218,140.307 281.5,135C 278.576,129.873 279.242,125.207 283.5,121C 292.003,117.43 300.669,114.097 309.5,111C 318.178,109.094 326.844,109.094 335.5,111C 339.323,116.071 339.989,121.404 337.5,127C 338.416,127.278 339.082,127.778 339.5,128.5 Z"/></g>
<g><path style="opacity:1" fill="#ececec" d="M 346.5,101.5 C 347.516,111.204 345.183,120.204 339.5,128.5C 339.082,127.778 338.416,127.278 337.5,127C 339.989,121.404 339.323,116.071 335.5,111C 326.844,109.094 318.178,109.094 309.5,111C 300.669,114.097 292.003,117.43 283.5,121C 279.242,125.207 278.576,129.873 281.5,135C 280.218,140.307 280.218,145.64 281.5,151C 280.793,154.2 279.96,157.367 279,160.5C 277.391,161.147 275.891,161.98 274.5,163C 274.833,163.333 275.167,163.667 275.5,164C 273.844,165.829 271.844,167.163 269.5,168C 270.305,169.113 270.972,170.279 271.5,171.5C 270.167,171.167 268.833,170.833 267.5,170.5C 264.373,169.419 261.04,168.753 257.5,168.5C 258.263,167.732 259.263,167.232 260.5,167C 258.189,165.948 256.856,164.115 256.5,161.5C 257.002,160.284 257.335,159.117 257.5,158C 256.042,153.605 254.375,149.272 252.5,145C 250.444,144.689 248.444,144.189 246.5,143.5C 241.034,146.401 235.701,149.568 230.5,153C 227.905,153.226 225.405,153.726 223,154.5C 218.523,152.181 215.023,148.847 212.5,144.5C 212.833,143.833 213.167,143.167 213.5,142.5C 212.104,141.148 211.437,139.481 211.5,137.5C 212.68,136.244 213.68,134.244 214.5,131.5C 214.291,130.914 213.957,130.414 213.5,130C 215.437,129.878 216.77,129.045 217.5,127.5C 218.338,127.842 218.672,128.508 218.5,129.5C 217.539,130.217 216.539,131.383 215.5,133C 215.833,133.333 216.167,133.667 216.5,134C 213.966,136.587 213.966,139.253 216.5,142C 216.167,142.333 215.833,142.667 215.5,143C 218.933,150.669 224.599,152.669 232.5,149C 238.61,143.77 245.61,141.103 253.5,141C 254.667,142.167 255.833,143.333 257,144.5C 257.69,149.488 258.856,154.321 260.5,159C 260.167,159.333 259.833,159.667 259.5,160C 261.957,161.562 264.624,162.562 267.5,163C 266.167,163.333 264.833,163.667 263.5,164C 267.678,163.43 271.678,161.93 275.5,159.5C 278.243,156.124 278.91,152.457 277.5,148.5C 277.5,147.5 277.5,146.5 277.5,145.5C 277.823,139.31 277.49,133.31 276.5,127.5C 275.979,123.519 275.646,119.519 275.5,115.5C 279.131,113.079 283.131,111.246 287.5,110C 286.304,109.346 286.304,108.846 287.5,108.5C 288.167,108.833 288.833,109.167 289.5,109.5C 295.738,106.989 301.904,104.322 308,101.5C 308.333,101.833 308.667,102.167 309,102.5C 318.37,99.752 327.536,99.252 336.5,101C 340.333,102.833 343.167,105.667 345,109.5C 345.183,106.635 345.683,103.969 346.5,101.5 Z"/></g>
<g><path style="opacity:1" fill="#cececf" d="M 261.5,135.5 C 260.732,134.737 260.232,133.737 260,132.5C 259.667,133.5 259.333,134.5 259,135.5C 258.592,132.58 257.259,130.246 255,128.5C 251.181,128.689 247.347,129.022 243.5,129.5C 243.649,130.552 243.483,131.552 243,132.5C 240.67,131.844 239.003,132.844 238,135.5C 235.979,134.764 234.479,135.597 233.5,138C 230.947,139.376 228.28,140.543 225.5,141.5C 221.063,140.28 219.73,137.947 221.5,134.5C 223.104,135.287 223.771,136.62 223.5,138.5C 224.791,138.737 225.791,138.404 226.5,137.5C 236.972,131.429 247.306,125.095 257.5,118.5C 259.586,123.921 260.92,129.588 261.5,135.5 Z"/></g>
<g><path style="opacity:1" fill="#353334" d="M 227.5,124.5 C 226.51,127.151 225.51,129.817 224.5,132.5C 225.43,134.105 225.43,135.605 224.5,137C 225.094,137.464 225.761,137.631 226.5,137.5C 225.791,138.404 224.791,138.737 223.5,138.5C 223.771,136.62 223.104,135.287 221.5,134.5C 220.89,133.609 220.557,132.609 220.5,131.5C 220.511,129.983 221.177,128.816 222.5,128C 224.323,127.003 225.99,125.836 227.5,124.5 Z"/></g>
<g><path style="opacity:1" fill="#2a292a" d="M 61.5,121.5 C 63.9333,128.79 66.6,136.123 69.5,143.5C 69.2786,144.735 68.6119,145.735 67.5,146.5C 67.9555,149.485 67.9555,152.318 67.5,155C 66.252,156.4 65.252,157.9 64.5,159.5C 61.6554,155.002 58.9887,150.336 56.5,145.5C 57.4859,144.808 58.4859,143.641 59.5,142C 58.9318,140.128 58.2651,138.295 57.5,136.5C 60.2315,131.909 61.5649,126.909 61.5,121.5 Z"/></g>
<g><path style="opacity:1" fill="#e5e5e5" d="M 261.5,135.5 C 261.366,137.292 261.699,138.958 262.5,140.5C 262.5,141.833 262.5,143.167 262.5,144.5C 262.5,145.5 262.5,146.5 262.5,147.5C 262.247,149.827 262.914,151.827 264.5,153.5C 268.443,150.852 272.777,149.185 277.5,148.5C 278.91,152.457 278.243,156.124 275.5,159.5C 271.678,161.93 267.678,163.43 263.5,164C 264.833,163.667 266.167,163.333 267.5,163C 264.624,162.562 261.957,161.562 259.5,160C 259.833,159.667 260.167,159.333 260.5,159C 258.856,154.321 257.69,149.488 257,144.5C 255.833,143.333 254.667,142.167 253.5,141C 245.61,141.103 238.61,143.77 232.5,149C 224.599,152.669 218.933,150.669 215.5,143C 215.833,142.667 216.167,142.333 216.5,142C 213.966,139.253 213.966,136.587 216.5,134C 216.167,133.667 215.833,133.333 215.5,133C 216.539,131.383 217.539,130.217 218.5,129.5C 219.167,130.167 219.833,130.833 220.5,131.5C 220.557,132.609 220.89,133.609 221.5,134.5C 219.73,137.947 221.063,140.28 225.5,141.5C 228.28,140.543 230.947,139.376 233.5,138C 234.479,135.597 235.979,134.764 238,135.5C 239.003,132.844 240.67,131.844 243,132.5C 243.483,131.552 243.649,130.552 243.5,129.5C 247.347,129.022 251.181,128.689 255,128.5C 257.259,130.246 258.592,132.58 259,135.5C 259.333,134.5 259.667,133.5 260,132.5C 260.232,133.737 260.732,134.737 261.5,135.5 Z"/></g>
<g><path style="opacity:1" fill="#e7e7e7" d="M 47.5,108.5 C 47.185,112.371 47.5184,116.038 48.5,119.5C 48.5407,123.616 49.2073,127.616 50.5,131.5C 50.0805,133.094 49.4138,134.594 48.5,136C 50.4393,142.982 53.4393,149.482 57.5,155.5C 57.2907,156.086 56.9574,156.586 56.5,157C 62.4344,167.416 68.9344,177.249 76,186.5C 76.3333,186.833 76.6667,187.167 77,187.5C 77.2492,186.376 77.7492,185.376 78.5,184.5C 78.8333,184.667 79.1667,184.833 79.5,185C 78.1667,186 78.1667,187 79.5,188C 78.8333,188.333 78.1667,188.667 77.5,189C 79.286,189.785 80.786,190.951 82,192.5C 84.5317,196.888 87.365,200.888 90.5,204.5C 96.2312,205.261 98.5646,208.594 97.5,214.5C 96.8333,215.833 95.8333,216.833 94.5,217.5C 93.623,214.891 92.2897,212.224 90.5,209.5C 89.448,209.649 88.448,209.483 87.5,209C 81.5524,202.745 75.8857,196.245 70.5,189.5C 65.6097,181.344 60.443,173.344 55,165.5C 54.6964,163.559 53.8631,161.893 52.5,160.5C 52.7093,159.914 53.0426,159.414 53.5,159C 52.0692,158.535 50.9025,157.701 50,156.5C 48.0047,149.205 45.5047,142.205 42.5,135.5C 42.5,129.167 42.5,122.833 42.5,116.5C 43.1667,114.167 43.8333,111.833 44.5,109.5C 45.325,108.614 46.325,108.281 47.5,108.5 Z"/></g>
<g><path style="opacity:1" fill="#515150" d="M 276.5,138.5 C 276.5,139.833 276.5,141.167 276.5,142.5C 271.759,142.735 267.092,143.402 262.5,144.5C 262.5,143.167 262.5,141.833 262.5,140.5C 267.036,139.189 271.703,138.523 276.5,138.5 Z"/></g>
<g><path style="opacity:1" fill="#848584" d="M 276.5,127.5 C 277.49,133.31 277.823,139.31 277.5,145.5C 272.575,146.685 267.575,147.351 262.5,147.5C 262.5,146.5 262.5,145.5 262.5,144.5C 267.092,143.402 271.759,142.735 276.5,142.5C 276.5,141.167 276.5,139.833 276.5,138.5C 276.5,134.833 276.5,131.167 276.5,127.5 Z"/></g>
<g><path style="opacity:1" fill="#a1a0a1" d="M 277.5,145.5 C 277.5,146.5 277.5,147.5 277.5,148.5C 272.777,149.185 268.443,150.852 264.5,153.5C 262.914,151.827 262.247,149.827 262.5,147.5C 267.575,147.351 272.575,146.685 277.5,145.5 Z"/></g>
<g><path style="opacity:1" fill="#1e1d1e" d="M 69.5,143.5 C 74.1978,150.386 78.5311,157.553 82.5,165C 81.1667,165.333 79.8333,165.667 78.5,166C 80.2351,167.182 81.2351,168.849 81.5,171C 81.1723,173.025 81.0056,175.191 81,177.5C 79.7303,175.422 78.2303,175.088 76.5,176.5C 71.7748,171.397 67.7748,165.731 64.5,159.5C 65.252,157.9 66.252,156.4 67.5,155C 67.9555,152.318 67.9555,149.485 67.5,146.5C 68.6119,145.735 69.2786,144.735 69.5,143.5 Z"/></g>
<g><path style="opacity:1" fill="#f7f8f8" d="M 234.5,113.5 C 228.579,117.946 222.912,122.613 217.5,127.5C 216.77,129.045 215.437,129.878 213.5,130C 213.957,130.414 214.291,130.914 214.5,131.5C 213.68,134.244 212.68,136.244 211.5,137.5C 211.437,139.481 212.104,141.148 213.5,142.5C 213.167,143.167 212.833,143.833 212.5,144.5C 215.023,148.847 218.523,152.181 223,154.5C 225.405,153.726 227.905,153.226 230.5,153C 235.701,149.568 241.034,146.401 246.5,143.5C 248.444,144.189 250.444,144.689 252.5,145C 254.375,149.272 256.042,153.605 257.5,158C 257.335,159.117 257.002,160.284 256.5,161.5C 256.856,164.115 258.189,165.948 260.5,167C 259.263,167.232 258.263,167.732 257.5,168.5C 256.2,172.096 255.2,175.763 254.5,179.5C 255.053,181.939 255.053,184.273 254.5,186.5C 255,187.5 255.5,188.5 256,189.5C 260.497,194.172 265.664,197.839 271.5,200.5C 271.458,202.521 271.458,204.521 271.5,206.5C 270.205,207.488 268.872,208.488 267.5,209.5C 266.395,210.6 265.062,211.267 263.5,211.5C 261.679,211.262 259.845,211.262 258,211.5C 256.471,212.729 255.304,214.229 254.5,216C 254.165,218.997 254.165,222.33 254.5,226C 252.016,227.606 252.016,229.106 254.5,230.5C 253.511,231.468 252.844,232.635 252.5,234C 253.01,236.706 253.677,239.373 254.5,242C 253.763,244.799 252.93,244.966 252,242.5C 251.316,243.784 251.483,244.951 252.5,246C 249.833,246.667 249.833,247.333 252.5,248C 250.947,249.097 249.614,250.43 248.5,252C 250.988,253.685 250.655,255.019 247.5,256C 248.727,257.587 248.394,258.921 246.5,260C 247.257,261.512 248.257,262.846 249.5,264C 249.074,267.592 247.074,269.092 243.5,268.5C 237.833,266.5 232.167,264.5 226.5,262.5C 224.321,261.323 221.987,260.323 219.5,259.5C 218.698,258.115 218.031,258.282 217.5,260C 216.062,263.485 214.728,266.985 213.5,270.5C 212.869,273.82 212.869,276.487 213.5,278.5C 215.442,283.144 218.442,286.977 222.5,290C 229.661,293.156 236.661,296.489 243.5,300C 245.487,301.319 246.654,303.152 247,305.5C 247.333,304.833 247.667,304.167 248,303.5C 248.399,303.728 248.565,304.062 248.5,304.5C 243.62,320.262 236.12,334.595 226,347.5C 210.068,365.467 195.068,364.8 181,345.5C 177.679,340.526 175.179,335.193 173.5,329.5C 174.856,326.65 176.522,323.983 178.5,321.5C 186.53,314.966 194.03,307.966 201,300.5C 202.3,297.705 203.8,295.039 205.5,292.5C 205.167,291.833 204.833,291.167 204.5,290.5C 208.792,286.457 208.459,283.124 203.5,280.5C 199.866,278.035 196.366,275.368 193,272.5C 183.943,281.558 174.277,289.891 164,297.5C 163.722,296.584 163.222,295.918 162.5,295.5C 162.419,287.772 161.752,280.105 160.5,272.5C 160.675,270.379 160.341,268.379 159.5,266.5C 159.785,264.712 159.452,263.045 158.5,261.5C 154.149,264.194 149.816,266.86 145.5,269.5C 144.677,272.977 144.177,276.644 144,280.5C 143.612,279.572 142.945,278.905 142,278.5C 140.294,280.727 138.46,282.894 136.5,285C 137.167,285.667 137.833,286.333 138.5,287C 137.976,293.405 137.976,299.738 138.5,306C 137.896,308.887 137.229,311.72 136.5,314.5C 118.553,324.984 99.2194,329.818 78.5,329C 75.9699,328.621 73.6365,327.787 71.5,326.5C 70.5,326.167 69.8333,325.5 69.5,324.5C 70.0906,323.849 70.7573,323.182 71.5,322.5C 69.6554,320.464 69.1554,318.13 70,315.5C 72.6446,305.872 76.1446,296.538 80.5,287.5C 80.2907,286.914 79.9574,286.414 79.5,286C 85.256,280.91 89.4227,274.743 92,267.5C 97.6716,259.751 103.338,252.084 109,244.5C 111.583,241.21 114.916,239.21 119,238.5C 125.111,240.181 130.611,242.348 135.5,245C 140.701,246.412 144.701,244.579 147.5,239.5C 147.94,237.235 148.606,235.068 149.5,233C 148.186,232.015 147.186,230.848 146.5,229.5C 145.268,226.816 145.268,223.983 146.5,221C 146.361,219.699 145.695,218.866 144.5,218.5C 143.5,216.833 142.167,215.5 140.5,214.5C 137.278,210.878 133.612,207.712 129.5,205C 133.042,201.29 136.708,197.79 140.5,194.5C 138.479,191.812 136.146,189.479 133.5,187.5C 132.855,186.188 131.855,185.188 130.5,184.5C 125.537,187.47 120.87,190.804 116.5,194.5C 109.897,187.395 103.063,180.395 96,173.5C 83.3949,159.383 73.8949,143.383 67.5,125.5C 69.022,124.292 70.3553,121.625 71.5,117.5C 73.6641,116.586 75.6641,115.419 77.5,114C 81.1663,112.928 84.4996,112.428 87.5,112.5C 104.406,114.976 120.739,119.476 136.5,126C 140.461,128.214 143.295,131.381 145,135.5C 145.369,143.887 145.869,152.054 146.5,160C 151.712,165.925 157.212,166.425 163,161.5C 166.161,155.82 167.995,149.82 168.5,143.5C 171.947,143.814 175.28,144.648 178.5,146C 181.167,146.667 183.833,146.667 186.5,146C 188.342,144.654 189.342,142.821 189.5,140.5C 191.25,138.941 192.25,136.941 192.5,134.5C 193.44,132.388 194.606,130.388 196,128.5C 196.74,127.251 196.573,126.251 195.5,125.5C 193.77,124.974 192.436,123.974 191.5,122.5C 189.582,118.088 186.249,115.254 181.5,114C 182.939,113.009 183.939,111.676 184.5,110C 184.461,107.703 184.128,105.37 183.5,103C 184.448,102.517 185.448,102.351 186.5,102.5C 186.205,99.6475 186.205,96.8142 186.5,94C 187.833,93.3333 189.167,92.6667 190.5,92C 191.925,82.9947 196.259,75.328 203.5,69C 202.549,68.2825 202.383,67.4491 203,66.5C 205.793,65.175 208.793,63.5084 212,61.5C 215.318,62.983 218.485,64.6496 221.5,66.5C 224.305,69.5297 226.139,73.1964 227,77.5C 227.903,78.7014 229.069,79.5348 230.5,80C 229.738,82.6546 230.738,84.6546 233.5,86C 232.978,86.5613 232.645,87.228 232.5,88C 234.14,91.3276 235.307,94.8276 236,98.5C 236.785,100.286 237.951,101.786 239.5,103C 238.355,105.805 236.355,108.472 233.5,111C 234.252,111.671 234.586,112.504 234.5,113.5 Z"/></g>
<g><path style="opacity:1" fill="#d6d5d6" d="M 186.5,136.5 C 188.315,135.37 190.315,134.704 192.5,134.5C 192.25,136.941 191.25,138.941 189.5,140.5C 187.542,142.247 185.208,143.247 182.5,143.5C 178.162,141.755 173.662,140.422 169,139.5C 167.438,143.014 166.605,146.681 166.5,150.5C 164.833,150.5 163.167,150.5 161.5,150.5C 161.719,151.675 161.386,152.675 160.5,153.5C 155.38,158.144 152.38,157.144 151.5,150.5C 150.5,150.5 149.5,150.5 148.5,150.5C 148.179,144.974 148.512,139.64 149.5,134.5C 149.5,134.833 149.5,135.167 149.5,135.5C 149.5,138.833 149.5,142.167 149.5,145.5C 149.5,146.833 149.5,148.167 149.5,149.5C 154.833,149.5 160.167,149.5 165.5,149.5C 165.5,148.167 165.5,146.833 165.5,145.5C 165.5,144.167 165.5,142.833 165.5,141.5C 165.291,136.377 165.958,131.377 167.5,126.5C 173.395,130.743 179.728,134.076 186.5,136.5 Z"/></g>
<g><path style="opacity:1" fill="#525151" d="M 149.5,145.5 C 153.487,146.164 157.487,146.831 161.5,147.5C 163.114,147.197 164.448,146.53 165.5,145.5C 165.5,146.833 165.5,148.167 165.5,149.5C 160.167,149.5 154.833,149.5 149.5,149.5C 149.5,148.167 149.5,146.833 149.5,145.5 Z"/></g>
<g><path style="opacity:1" fill="#2a2a29" d="M 149.5,135.5 C 149.833,135.5 150.167,135.5 150.5,135.5C 150.5,137.833 150.5,140.167 150.5,142.5C 155.074,142.914 159.574,143.581 164,144.5C 164.232,143.263 164.732,142.263 165.5,141.5C 165.5,142.833 165.5,144.167 165.5,145.5C 164.448,146.53 163.114,147.197 161.5,147.5C 157.487,146.831 153.487,146.164 149.5,145.5C 149.5,142.167 149.5,138.833 149.5,135.5 Z"/></g>
<g><path style="opacity:1" fill="#6e7070" d="M 195.5,125.5 C 196.573,126.251 196.74,127.251 196,128.5C 194.606,130.388 193.44,132.388 192.5,134.5C 190.315,134.704 188.315,135.37 186.5,136.5C 189.729,133.057 192.729,129.39 195.5,125.5 Z"/></g>
<g><path style="opacity:1" fill="#5c5b5b" d="M 151.5,116.5 C 152.721,117.028 153.887,117.695 155,118.5C 155.326,123.229 154.826,127.896 153.5,132.5C 151.105,131.477 150.105,132.477 150.5,135.5C 150.167,135.5 149.833,135.5 149.5,135.5C 149.5,135.167 149.5,134.833 149.5,134.5C 149.5,133.167 149.5,131.833 149.5,130.5C 150.644,126.036 151.31,121.37 151.5,116.5 Z"/></g>
<g><path style="opacity:1" fill="#2d2c2d" d="M 195.5,164.5 C 201.358,164.178 207.025,164.511 212.5,165.5C 211.5,165.5 210.5,165.5 209.5,165.5C 207.52,165.854 205.52,166.187 203.5,166.5C 201.604,168.881 201.271,171.381 202.5,174C 201.718,176.74 201.218,179.574 201,182.5C 195.892,197.162 185.392,203.996 169.5,203C 167.324,203.163 165.491,203.996 164,205.5C 163.667,203.167 163.333,200.833 163,198.5C 162.501,202.486 162.334,206.486 162.5,210.5C 160.844,203.376 161.511,196.376 164.5,189.5C 165.117,189.389 165.617,189.056 166,188.5C 168.532,191.668 171.865,193.001 176,192.5C 183.425,192.733 188.425,189.4 191,182.5C 192.723,177.472 192.556,172.472 190.5,167.5C 192.145,166.304 193.811,165.304 195.5,164.5 Z"/></g>
<g><path style="opacity:1" fill="#1d1d1d" d="M 209.5,165.5 C 209.918,166.222 210.584,166.722 211.5,167C 210.167,171.333 208.833,175.667 207.5,180C 208.022,180.561 208.355,181.228 208.5,182C 205.45,192.704 199.117,200.704 189.5,206C 181.212,207.924 172.879,209.591 164.5,211C 163.944,211.383 163.611,211.883 163.5,212.5C 163.5,212.833 163.5,213.167 163.5,213.5C 162.596,212.791 162.263,211.791 162.5,210.5C 162.334,206.486 162.501,202.486 163,198.5C 163.333,200.833 163.667,203.167 164,205.5C 165.491,203.996 167.324,203.163 169.5,203C 185.392,203.996 195.892,197.162 201,182.5C 201.218,179.574 201.718,176.74 202.5,174C 201.271,171.381 201.604,168.881 203.5,166.5C 205.52,166.187 207.52,165.854 209.5,165.5 Z"/></g>
<g><path style="opacity:1" fill="#020202" d="M 217.5,167.5 C 236.355,175.566 244.521,189.899 242,210.5C 238.647,228.365 228.147,239.531 210.5,244C 189.574,247.121 174.407,239.288 165,220.5C 164.023,218.26 163.523,215.927 163.5,213.5C 163.5,213.167 163.5,212.833 163.5,212.5C 165.526,214.585 168.026,215.918 171,216.5C 192.162,217.11 205.829,207.444 212,187.5C 213.836,181.304 214.836,174.97 215,168.5C 215.671,167.748 216.504,167.414 217.5,167.5 Z"/></g>
<g><path style="opacity:1" fill="#484748" d="M 195.5,164.5 C 193.811,165.304 192.145,166.304 190.5,167.5C 192.556,172.472 192.723,177.472 191,182.5C 188.425,189.4 183.425,192.733 176,192.5C 171.865,193.001 168.532,191.668 166,188.5C 165.617,189.056 165.117,189.389 164.5,189.5C 169.32,178.514 177.32,170.681 188.5,166C 190.74,165.023 193.073,164.523 195.5,164.5 Z"/></g>
<g><path style="opacity:1" fill="#d8d8d7" d="M 50.5,131.5 C 51.1667,132.5 51.8333,133.5 52.5,134.5C 53.4588,138.383 54.7922,142.05 56.5,145.5C 58.9887,150.336 61.6554,155.002 64.5,159.5C 67.7748,165.731 71.7748,171.397 76.5,176.5C 84.7887,187.456 94.122,197.456 104.5,206.5C 102.138,209.192 99.8044,211.859 97.5,214.5C 98.5646,208.594 96.2312,205.261 90.5,204.5C 87.365,200.888 84.5317,196.888 82,192.5C 80.786,190.951 79.286,189.785 77.5,189C 78.1667,188.667 78.8333,188.333 79.5,188C 78.1667,187 78.1667,186 79.5,185C 79.1667,184.833 78.8333,184.667 78.5,184.5C 77.7492,185.376 77.2492,186.376 77,187.5C 76.6667,187.167 76.3333,186.833 76,186.5C 68.9344,177.249 62.4344,167.416 56.5,157C 56.9574,156.586 57.2907,156.086 57.5,155.5C 53.4393,149.482 50.4393,142.982 48.5,136C 49.4138,134.594 50.0805,133.094 50.5,131.5 Z"/></g>
<g><path style="opacity:1" fill="#4c4b4c" d="M 257.5,168.5 C 261.04,168.753 264.373,169.419 267.5,170.5C 266.5,170.5 265.5,170.5 264.5,170.5C 264.137,174.832 262.47,178.499 259.5,181.5C 257.95,180.559 256.284,179.893 254.5,179.5C 255.2,175.763 256.2,172.096 257.5,168.5 Z"/></g>
<g><path style="opacity:1" fill="#111111" d="M 209.5,165.5 C 210.5,165.5 211.5,165.5 212.5,165.5C 214.403,165.796 216.07,166.463 217.5,167.5C 216.504,167.414 215.671,167.748 215,168.5C 214.836,174.97 213.836,181.304 212,187.5C 205.829,207.444 192.162,217.11 171,216.5C 168.026,215.918 165.526,214.585 163.5,212.5C 163.611,211.883 163.944,211.383 164.5,211C 172.879,209.591 181.212,207.924 189.5,206C 199.117,200.704 205.45,192.704 208.5,182C 208.355,181.228 208.022,180.561 207.5,180C 208.833,175.667 210.167,171.333 211.5,167C 210.584,166.722 209.918,166.222 209.5,165.5 Z"/></g>
<g><path style="opacity:1" fill="#dbdbdb" d="M 254.5,179.5 C 256.284,179.893 257.95,180.559 259.5,181.5C 268.339,185.749 276.672,190.749 284.5,196.5C 280.356,200.073 276.022,203.406 271.5,206.5C 271.458,204.521 271.458,202.521 271.5,200.5C 265.664,197.839 260.497,194.172 256,189.5C 255.5,188.5 255,187.5 254.5,186.5C 255.053,184.273 255.053,181.939 254.5,179.5 Z"/></g>
<g><path style="opacity:1" fill="#777677" d="M 133.5,187.5 C 132.448,187.351 131.448,187.517 130.5,188C 127.647,190.911 124.647,193.578 121.5,196C 119.326,196.877 117.659,196.377 116.5,194.5C 120.87,190.804 125.537,187.47 130.5,184.5C 131.855,185.188 132.855,186.188 133.5,187.5 Z"/></g>
<g><path style="opacity:1" fill="#070707" d="M 321.5,202.5 C 334.583,213.016 345.583,225.35 354.5,239.5C 361.489,251.114 363.156,263.447 359.5,276.5C 352.033,288.92 341.033,296.42 326.5,299C 307.958,302.79 289.625,301.956 271.5,296.5C 265.075,316.349 256.241,335.015 245,352.5C 240.73,358.05 236.23,363.383 231.5,368.5C 207.027,385.906 186.194,382.24 169,357.5C 162.983,347.135 157.816,336.468 153.5,325.5C 131.524,338.383 107.857,345.383 82.5,346.5C 78.8285,345.902 75.1619,344.902 71.5,343.5C 72.1654,341.899 72.4988,340.399 72.5,339C 74.087,338.138 75.7536,337.471 77.5,337C 78.8333,336.333 78.8333,335.667 77.5,335C 84.0133,334.828 90.3466,334.328 96.5,333.5C 123.386,328.055 147.386,316.721 168.5,299.5C 175.295,293.875 181.962,288.042 188.5,282C 192.156,281.164 195.49,281.831 198.5,284C 199.823,284.816 200.489,285.983 200.5,287.5C 190.443,298.023 179.777,307.856 168.5,317C 169.704,321.466 171.371,325.633 173.5,329.5C 175.179,335.193 177.679,340.526 181,345.5C 195.068,364.8 210.068,365.467 226,347.5C 236.12,334.595 243.62,320.262 248.5,304.5C 250.935,300.201 252.602,295.534 253.5,290.5C 245.663,288.253 237.996,285.42 230.5,282C 226.268,279.725 222.268,277.225 218.5,274.5C 219.049,272.099 219.882,269.765 221,267.5C 222.076,264.921 223.909,263.254 226.5,262.5C 232.167,264.5 237.833,266.5 243.5,268.5C 246.652,270.278 249.985,271.778 253.5,273C 254.944,273.781 256.277,273.614 257.5,272.5C 258.991,264.574 259.991,256.574 260.5,248.5C 266.361,248.126 272.028,247.126 277.5,245.5C 276.907,256.838 276.24,268.171 275.5,279.5C 290.032,282.318 304.699,283.151 319.5,282C 323.91,280.964 328.244,279.631 332.5,278C 334.996,276.669 336.996,274.836 338.5,272.5C 339.931,271.22 340.598,269.553 340.5,267.5C 341.833,263.167 341.833,258.833 340.5,254.5C 337.834,246.329 333.667,238.996 328,232.5C 319.679,224.013 311.179,215.68 302.5,207.5C 305.651,204.85 308.651,202.016 311.5,199C 312.833,198.333 314.167,198.333 315.5,199C 317.391,200.442 319.391,201.609 321.5,202.5 Z"/></g>
<g><path style="opacity:1" fill="#565656" d="M 140.5,214.5 C 142.167,215.5 143.5,216.833 144.5,218.5C 143.817,220.176 142.483,220.843 140.5,220.5C 140.975,223.082 140.308,225.082 138.5,226.5C 136.901,226.768 135.568,226.434 134.5,225.5C 135.5,225.5 136.5,225.5 137.5,225.5C 138.119,222.689 139.452,220.189 141.5,218C 141.011,216.862 140.678,215.695 140.5,214.5 Z"/></g>
<g><path style="opacity:1" fill="#e2e3e3" d="M 260.5,214.5 C 259.167,215.5 259.167,216.5 260.5,217.5C 260.963,220.482 261.296,223.482 261.5,226.5C 265.08,225.923 268.08,226.923 270.5,229.5C 278.6,227.151 286.433,223.484 294,218.5C 295.25,219.573 296.584,219.573 298,218.5C 299.032,220.145 300.199,220.478 301.5,219.5C 313.94,227.273 323.94,237.273 331.5,249.5C 333.451,249.227 334.951,249.893 336,251.5C 336.333,251.167 336.667,250.833 337,250.5C 337.49,251.793 337.657,253.127 337.5,254.5C 338.5,254.5 339.5,254.5 340.5,254.5C 341.833,258.833 341.833,263.167 340.5,267.5C 339.778,267.918 339.278,268.584 339,269.5C 338.461,265.217 337.128,261.217 335,257.5C 326.965,245.127 317.131,234.293 305.5,225C 301.318,223.096 297.151,222.263 293,222.5C 287.33,225.255 281.83,228.422 276.5,232C 272.54,233.663 268.54,233.83 264.5,232.5C 263.289,231.726 263.289,230.893 264.5,230C 262.699,229.683 262.366,229.016 263.5,228C 262.552,227.517 261.552,227.351 260.5,227.5C 260.286,223.594 259.619,219.761 258.5,216C 258.836,214.97 259.503,214.47 260.5,214.5 Z"/></g>
<g><path style="opacity:1" fill="#7a7a7a" d="M 267.5,209.5 C 267.721,210.735 268.388,211.735 269.5,212.5C 267.547,213.761 265.547,214.927 263.5,216C 266.818,217.92 269.818,220.086 272.5,222.5C 267.023,225.829 264.023,224.162 263.5,217.5C 262.5,217.5 261.5,217.5 260.5,217.5C 259.167,216.5 259.167,215.5 260.5,214.5C 261.833,213.833 262.833,212.833 263.5,211.5C 265.062,211.267 266.395,210.6 267.5,209.5 Z"/></g>
<g><path style="opacity:1" fill="#a0a0a1" d="M 144.5,218.5 C 145.695,218.866 146.361,219.699 146.5,221C 145.268,223.983 145.268,226.816 146.5,229.5C 146.672,230.492 146.338,231.158 145.5,231.5C 143.424,229.416 141.09,227.749 138.5,226.5C 140.308,225.082 140.975,223.082 140.5,220.5C 142.483,220.843 143.817,220.176 144.5,218.5 Z"/></g>
<g><path style="opacity:1" fill="#eeefee" d="M 263.5,211.5 C 262.833,212.833 261.833,213.833 260.5,214.5C 259.503,214.47 258.836,214.97 258.5,216C 259.619,219.761 260.286,223.594 260.5,227.5C 261.552,227.351 262.552,227.517 263.5,228C 262.366,229.016 262.699,229.683 264.5,230C 263.289,230.893 263.289,231.726 264.5,232.5C 268.54,233.83 272.54,233.663 276.5,232C 281.83,228.422 287.33,225.255 293,222.5C 297.151,222.263 301.318,223.096 305.5,225C 317.131,234.293 326.965,245.127 335,257.5C 337.128,261.217 338.461,265.217 339,269.5C 339.278,268.584 339.778,267.918 340.5,267.5C 340.598,269.553 339.931,271.22 338.5,272.5C 337.357,272.793 336.023,272.793 334.5,272.5C 331.786,269.681 330.786,266.515 331.5,263C 329.302,260.417 327.469,257.584 326,254.5C 323.791,253.08 321.791,251.413 320,249.5C 318.158,245.813 315.825,242.48 313,239.5C 308.97,236.962 305.47,233.795 302.5,230C 299.558,228.876 296.558,228.542 293.5,229C 285.999,233.417 278.332,237.251 270.5,240.5C 267.167,240.5 263.833,240.5 260.5,240.5C 260.5,242.167 260.5,243.833 260.5,245.5C 260.5,246.5 260.5,247.5 260.5,248.5C 259.991,256.574 258.991,264.574 257.5,272.5C 256.277,273.614 254.944,273.781 253.5,273C 249.985,271.778 246.652,270.278 243.5,268.5C 247.074,269.092 249.074,267.592 249.5,264C 248.257,262.846 247.257,261.512 246.5,260C 248.394,258.921 248.727,257.587 247.5,256C 250.655,255.019 250.988,253.685 248.5,252C 249.614,250.43 250.947,249.097 252.5,248C 249.833,247.333 249.833,246.667 252.5,246C 251.483,244.951 251.316,243.784 252,242.5C 252.93,244.966 253.763,244.799 254.5,242C 253.677,239.373 253.01,236.706 252.5,234C 252.844,232.635 253.511,231.468 254.5,230.5C 252.016,229.106 252.016,227.606 254.5,226C 254.165,222.33 254.165,218.997 254.5,216C 255.304,214.229 256.471,212.729 258,211.5C 259.845,211.262 261.679,211.262 263.5,211.5 Z"/></g>
<g><path style="opacity:1" fill="#dedede" d="M 134.5,225.5 C 135.568,226.434 136.901,226.768 138.5,226.5C 141.09,227.749 143.424,229.416 145.5,231.5C 144.194,234.349 142.194,236.682 139.5,238.5C 137.93,238.306 136.43,238.306 135,238.5C 130.208,237.24 125.708,235.406 121.5,233C 117.88,232.159 114.546,232.826 111.5,235C 108.64,237.86 105.806,240.694 103,243.5C 101.256,246.702 99.423,249.702 97.5,252.5C 96.325,252.281 95.325,252.614 94.5,253.5C 93.7469,255.753 92.4136,257.587 90.5,259C 91.4506,259.718 91.6172,260.551 91,261.5C 87.1387,265.169 83.972,269.336 81.5,274C 82.4279,276.414 82.2612,278.914 81,281.5C 78.4459,284.36 76.7793,287.693 76,291.5C 71.2807,294.556 68.6141,298.889 68,304.5C 67.6667,303.5 67.3333,302.5 67,301.5C 66.7216,302.416 66.2216,303.082 65.5,303.5C 66.4835,298.046 67.9835,292.713 70,287.5C 81.3643,260.834 97.3643,237.501 118,217.5C 123.308,220.57 128.808,223.237 134.5,225.5 Z"/></g>
<g><path style="opacity:1" fill="#d8d8d8" d="M 359.5,129.5 C 358.787,132.237 358.787,134.904 359.5,137.5C 357.694,142.084 356.194,146.751 355,151.5C 354.667,151.167 354.333,150.833 354,150.5C 352.37,154.059 350.37,157.392 348,160.5C 347.51,161.793 347.343,163.127 347.5,164.5C 346.325,164.281 345.325,164.614 344.5,165.5C 341.819,170.874 338.652,175.874 335,180.5C 331.833,185 328,188.833 323.5,192C 323.957,192.414 324.291,192.914 324.5,193.5C 320.577,195.526 319.577,198.526 321.5,202.5C 319.391,201.609 317.391,200.442 315.5,199C 314.167,198.333 312.833,198.333 311.5,199C 308.651,202.016 305.651,204.85 302.5,207.5C 311.179,215.68 319.679,224.013 328,232.5C 333.667,238.996 337.834,246.329 340.5,254.5C 339.5,254.5 338.5,254.5 337.5,254.5C 337.657,253.127 337.49,251.793 337,250.5C 336.667,250.833 336.333,251.167 336,251.5C 334.951,249.893 333.451,249.227 331.5,249.5C 323.94,237.273 313.94,227.273 301.5,219.5C 300.199,220.478 299.032,220.145 298,218.5C 296.584,219.573 295.25,219.573 294,218.5C 286.433,223.484 278.6,227.151 270.5,229.5C 268.08,226.923 265.08,225.923 261.5,226.5C 261.296,223.482 260.963,220.482 260.5,217.5C 261.5,217.5 262.5,217.5 263.5,217.5C 264.023,224.162 267.023,225.829 272.5,222.5C 277.265,220.618 281.932,218.452 286.5,216C 319.183,194.084 343.516,165.251 359.5,129.5 Z"/></g>
<g><path style="opacity:1" fill="#eeeeee" d="M 146.5,229.5 C 147.186,230.848 148.186,232.015 149.5,233C 148.606,235.068 147.94,237.235 147.5,239.5C 144.701,244.579 140.701,246.412 135.5,245C 130.611,242.348 125.111,240.181 119,238.5C 114.916,239.21 111.583,241.21 109,244.5C 103.338,252.084 97.6716,259.751 92,267.5C 89.4227,274.743 85.256,280.91 79.5,286C 79.9574,286.414 80.2907,286.914 80.5,287.5C 76.1446,296.538 72.6446,305.872 70,315.5C 69.1554,318.13 69.6554,320.464 71.5,322.5C 70.7573,323.182 70.0906,323.849 69.5,324.5C 67.3763,323.969 65.8763,322.635 65,320.5C 64.2599,314.782 64.4265,309.115 65.5,303.5C 66.2216,303.082 66.7216,302.416 67,301.5C 67.3333,302.5 67.6667,303.5 68,304.5C 68.6141,298.889 71.2807,294.556 76,291.5C 76.7793,287.693 78.4459,284.36 81,281.5C 82.2612,278.914 82.4279,276.414 81.5,274C 83.972,269.336 87.1387,265.169 91,261.5C 91.6172,260.551 91.4506,259.718 90.5,259C 92.4136,257.587 93.7469,255.753 94.5,253.5C 95.325,252.614 96.325,252.281 97.5,252.5C 99.423,249.702 101.256,246.702 103,243.5C 105.806,240.694 108.64,237.86 111.5,235C 114.546,232.826 117.88,232.159 121.5,233C 125.708,235.406 130.208,237.24 135,238.5C 136.43,238.306 137.93,238.306 139.5,238.5C 142.194,236.682 144.194,234.349 145.5,231.5C 146.338,231.158 146.672,230.492 146.5,229.5 Z"/></g>
<g><path style="opacity:1" fill="#f7f7f7" d="M 338.5,272.5 C 336.996,274.836 334.996,276.669 332.5,278C 328.244,279.631 323.91,280.964 319.5,282C 304.699,283.151 290.032,282.318 275.5,279.5C 276.24,268.171 276.907,256.838 277.5,245.5C 277.5,244.167 277.5,242.833 277.5,241.5C 275.393,240.532 273.059,240.198 270.5,240.5C 278.332,237.251 285.999,233.417 293.5,229C 296.558,228.542 299.558,228.876 302.5,230C 305.47,233.795 308.97,236.962 313,239.5C 315.825,242.48 318.158,245.813 320,249.5C 321.791,251.413 323.791,253.08 326,254.5C 327.469,257.584 329.302,260.417 331.5,263C 330.786,266.515 331.786,269.681 334.5,272.5C 336.023,272.793 337.357,272.793 338.5,272.5 Z"/></g>
<g><path style="opacity:1" fill="#1c1b1b" d="M 102.5,216.5 C 103.461,217.217 104.461,218.383 105.5,220C 104.672,220.915 103.672,221.581 102.5,222C 103.175,224.242 102.675,226.409 101,228.5C 85.8012,246.212 73.6346,265.879 64.5,287.5C 64.9318,280.083 67.5984,273.249 72.5,267C 72.1667,266.667 71.8333,266.333 71.5,266C 72.5248,263.929 73.3581,261.762 74,259.5C 76.2902,256.405 78.2902,253.072 80,249.5C 84.1414,247.19 86.6414,243.19 87.5,237.5C 89.5547,235.445 91.2213,233.112 92.5,230.5C 92.3764,229.893 92.0431,229.56 91.5,229.5C 94.8207,224.848 98.4874,220.515 102.5,216.5 Z"/></g>
<g><path style="opacity:1" fill="#737372" d="M 270.5,240.5 C 273.059,240.198 275.393,240.532 277.5,241.5C 271.237,240.827 265.57,242.161 260.5,245.5C 260.5,243.833 260.5,242.167 260.5,240.5C 263.833,240.5 267.167,240.5 270.5,240.5 Z"/></g>
<g><path style="opacity:1" fill="#403f40" d="M 277.5,241.5 C 277.5,242.833 277.5,244.167 277.5,245.5C 272.028,247.126 266.361,248.126 260.5,248.5C 260.5,247.5 260.5,246.5 260.5,245.5C 265.57,242.161 271.237,240.827 277.5,241.5 Z"/></g>
<g><path style="opacity:1" fill="#2c2b2b" d="M 91.5,229.5 C 92.0431,229.56 92.3764,229.893 92.5,230.5C 91.2213,233.112 89.5547,235.445 87.5,237.5C 86.6414,243.19 84.1414,247.19 80,249.5C 78.2902,253.072 76.2902,256.405 74,259.5C 73.3581,261.762 72.5248,263.929 71.5,266C 71.8333,266.333 72.1667,266.667 72.5,267C 67.5984,273.249 64.9318,280.083 64.5,287.5C 62.9153,292.892 61.582,298.225 60.5,303.5C 60.0432,298.102 60.7098,292.936 62.5,288C 62.3552,286.774 62.0219,285.607 61.5,284.5C 62.6482,281.048 63.9815,277.714 65.5,274.5C 65.1543,273.151 64.821,271.817 64.5,270.5C 71.5428,255.474 80.5428,241.807 91.5,229.5 Z"/></g>
<g><path style="opacity:1" fill="#f5f6f6" d="M 57.5,88.5 C 52.0467,94.0733 48.7133,100.74 47.5,108.5C 46.325,108.281 45.325,108.614 44.5,109.5C 43.8333,111.833 43.1667,114.167 42.5,116.5C 42.5,122.833 42.5,129.167 42.5,135.5C 45.5047,142.205 48.0047,149.205 50,156.5C 50.9025,157.701 52.0692,158.535 53.5,159C 53.0426,159.414 52.7093,159.914 52.5,160.5C 53.8631,161.893 54.6964,163.559 55,165.5C 60.443,173.344 65.6097,181.344 70.5,189.5C 75.8857,196.245 81.5524,202.745 87.5,209C 88.448,209.483 89.448,209.649 90.5,209.5C 92.2897,212.224 93.623,214.891 94.5,217.5C 84.1784,229.493 74.8451,242.16 66.5,255.5C 64.0997,254.073 63.433,254.573 64.5,257C 63.6242,259.376 61.9575,260.876 59.5,261.5C 55.3611,270.099 51.5278,278.765 48,287.5C 47.5026,290.146 47.3359,292.813 47.5,295.5C 46.5,295.5 45.5,295.5 44.5,295.5C 43.305,301.365 41.9717,307.198 40.5,313C 39.2904,321.824 39.2904,330.491 40.5,339C 43.0273,341.574 44.194,344.74 44,348.5C 44.3333,348.167 44.6667,347.833 45,347.5C 45.9234,348.759 46.7568,350.092 47.5,351.5C 54.2962,356.466 61.4629,360.8 69,364.5C 80.3469,365.784 91.6803,365.784 103,364.5C 106.247,362.919 109.58,361.586 113,360.5C 114.558,361.345 115.558,360.679 116,358.5C 116.725,359.059 117.558,359.392 118.5,359.5C 120.601,358.408 122.768,357.408 125,356.5C 125.333,356.833 125.667,357.167 126,357.5C 127.314,356.687 128.481,355.687 129.5,354.5C 134.722,353.372 139.556,351.372 144,348.5C 146.041,349.423 148.208,349.756 150.5,349.5C 152.922,354.499 154.756,359.832 156,365.5C 156.667,364.167 157.333,364.167 158,365.5C 161.138,370.78 163.971,376.114 166.5,381.5C 170.234,384.045 173.901,386.878 177.5,390C 178.448,390.483 179.448,390.649 180.5,390.5C 180.5,391.5 180.5,392.5 180.5,393.5C 188.354,395.796 196.354,397.463 204.5,398.5C 215.142,396.848 224.475,392.515 232.5,385.5C 235.4,380.969 238.9,376.969 243,373.5C 243.49,372.207 243.657,370.873 243.5,369.5C 245.39,369.703 246.89,369.037 248,367.5C 251.376,363.415 253.709,358.749 255,353.5C 258.386,351.227 260.886,348.227 262.5,344.5C 261.777,341.208 262.944,338.541 266,336.5C 266.339,333.964 266.839,331.464 267.5,329C 267.905,328.055 268.572,327.388 269.5,327C 269.045,324.049 270.045,321.383 272.5,319C 281.555,317.245 290.722,317.745 300,320.5C 301.009,319.342 302.342,318.675 304,318.5C 306.945,318.935 309.945,319.269 313,319.5C 314.261,319.241 315.261,318.574 316,317.5C 316.414,317.957 316.914,318.291 317.5,318.5C 322.45,317.542 327.45,316.876 332.5,316.5C 332.119,314.058 332.786,313.391 334.5,314.5C 337.07,313.366 339.736,312.532 342.5,312C 345.958,308.396 349.624,305.062 353.5,302C 354.448,301.517 355.448,301.351 356.5,301.5C 356.343,300.127 356.51,298.793 357,297.5C 360.164,292.671 362.664,287.505 364.5,282C 364.5,280 364.5,278 364.5,276C 363.692,275.692 363.025,275.192 362.5,274.5C 363.167,274.167 363.833,273.833 364.5,273.5C 362.843,267.627 362.177,261.627 362.5,255.5C 365.639,257.471 367.639,259.971 368.5,263C 367.78,268.028 367.78,272.861 368.5,277.5C 368.099,283.877 366.766,290.043 364.5,296C 363.201,297.326 361.868,298.66 360.5,300C 360.833,300.333 361.167,300.667 361.5,301C 359.779,301.739 358.113,302.573 356.5,303.5C 360.03,305.49 359.697,306.323 355.5,306C 357.797,309.667 356.63,310.833 352,309.5C 348.662,312.173 345.329,314.839 342,317.5C 340.235,318.239 338.235,318.239 336,317.5C 333.283,318.629 330.783,320.129 328.5,322C 322.919,322.085 317.585,323.085 312.5,325C 305.476,325.831 298.476,325.664 291.5,324.5C 291.291,323.914 290.957,323.414 290.5,323C 285.5,322.333 280.5,322.333 275.5,323C 274.769,325.595 273.102,327.261 270.5,328C 271.428,328.388 272.095,329.055 272.5,330C 271.729,332.267 270.396,334.1 268.5,335.5C 269.315,338.414 268.649,341.081 266.5,343.5C 267.429,345.322 266.762,346.655 264.5,347.5C 264.709,348.086 265.043,348.586 265.5,349C 263.808,350.401 263.141,352.234 263.5,354.5C 262.5,354.5 261.5,354.5 260.5,354.5C 259.582,359.3 257.916,363.634 255.5,367.5C 254.325,367.281 253.325,367.614 252.5,368.5C 250.722,370.945 249.389,373.611 248.5,376.5C 244.665,380.272 240.998,384.272 237.5,388.5C 236.476,389.853 235.143,390.52 233.5,390.5C 233.719,391.675 233.386,392.675 232.5,393.5C 216.041,403.792 198.708,405.625 180.5,399C 181.167,398.667 181.833,398.333 182.5,398C 180.866,397.506 179.199,397.34 177.5,397.5C 177.5,396.5 177.5,395.5 177.5,394.5C 174.561,394.082 172.228,392.582 170.5,390C 169.207,389.51 167.873,389.343 166.5,389.5C 166.707,386.255 165.207,384.255 162,383.5C 160.354,381.945 160.021,380.279 161,378.5C 156.352,372.877 152.185,367.044 148.5,361C 151.167,358.76 150.667,357.26 147,356.5C 146.517,355.552 146.351,354.552 146.5,353.5C 144.089,353.137 142.589,354.137 142,356.5C 141.667,356.167 141.333,355.833 141,355.5C 138.513,357.281 135.679,358.447 132.5,359C 131.953,359.925 131.287,360.758 130.5,361.5C 128.345,361.162 126.011,361.162 123.5,361.5C 123.769,363.429 123.269,365.095 122,366.5C 121.517,365.552 121.351,364.552 121.5,363.5C 113.736,364.946 106.236,366.946 99,369.5C 97.4265,369.155 96.2598,368.489 95.5,367.5C 94.6099,369.3 92.6099,370.3 89.5,370.5C 84.121,370.756 78.621,370.423 73,369.5C 70.494,369.051 68.3274,368.051 66.5,366.5C 65.8333,366.667 65.1667,366.833 64.5,367C 65.6956,367.654 65.6956,368.154 64.5,368.5C 63.4593,366.009 62.6259,366.009 62,368.5C 61.6667,367.5 61.3333,366.5 61,365.5C 60.6667,365.833 60.3333,366.167 60,366.5C 53.9935,363.939 48.6602,360.272 44,355.5C 43.6667,355.833 43.3333,356.167 43,356.5C 41.6485,354.406 41.1485,352.073 41.5,349.5C 38.306,349.824 37.306,348.658 38.5,346C 35.0458,345.707 34.7124,344.374 37.5,342C 35.9728,336.998 35.3061,331.831 35.5,326.5C 35.3272,320.547 35.9939,315.047 37.5,310C 36.8333,309.667 36.1667,309.333 35.5,309C 36.5,308 37.5,307 38.5,306C 37.8333,305.667 37.1667,305.333 36.5,305C 41.707,291.901 47.0404,278.734 52.5,265.5C 54.1667,267.167 55.1667,266.833 55.5,264.5C 54.554,262.742 54.554,261.075 55.5,259.5C 57.1227,260.491 58.1227,259.824 58.5,257.5C 59.376,256.749 60.376,256.249 61.5,256C 60.8333,255.667 60.1667,255.333 59.5,255C 63.2653,249.459 67.2653,244.126 71.5,239C 70.7203,237.927 70.887,236.76 72,235.5C 73.2547,234.789 74.4214,233.956 75.5,233C 73.0989,232.195 73.2656,231.362 76,230.5C 76.3333,230.833 76.6667,231.167 77,231.5C 77.3589,228.456 78.0255,228.122 79,230.5C 80.487,229.747 80.6537,228.914 79.5,228C 81.0441,227.71 82.3774,227.044 83.5,226C 82.8333,225.667 82.1667,225.333 81.5,225C 83.1322,223.69 84.7988,223.19 86.5,223.5C 84.7386,221.436 84.4053,219.269 85.5,217C 83.4927,215.287 81.4927,213.621 79.5,212C 79.8333,211.667 80.1667,211.333 80.5,211C 77.5715,209.713 75.2382,207.713 73.5,205C 72.552,204.517 71.552,204.351 70.5,204.5C 68.8336,198.99 65.3336,194.323 60,190.5C 58.6319,189.007 58.4652,187.507 59.5,186C 57.3773,183.755 55.0439,181.755 52.5,180C 52.4615,178.755 52.7948,177.422 53.5,176C 51.1829,173.056 48.8496,170.056 46.5,167C 47.6469,164.915 46.9803,163.415 44.5,162.5C 45.2458,161.264 45.5792,159.93 45.5,158.5C 43.0582,158.881 42.3915,158.214 43.5,156.5C 40.3422,152.083 38.0088,147.583 36.5,143C 36.8333,142.667 37.1667,142.333 37.5,142C 35.1394,138.367 34.1394,134.367 34.5,130C 34.9841,126.854 34.9841,123.854 34.5,121C 36.4338,117.096 38.1005,113.429 39.5,110C 36.0729,106.496 37.0729,104.662 42.5,104.5C 43.7606,99.9928 46.0939,95.9928 49.5,92.5C 48.1451,91.3247 48.3117,90.3247 50,89.5C 50.3076,90.3081 50.8076,90.9747 51.5,91.5C 52.7112,90.7261 52.7112,89.8928 51.5,89C 53.5479,87.7586 55.5479,87.5919 57.5,88.5 Z"/></g>
<g><path style="opacity:1" fill="#7c7c7c" d="M 104.5,206.5 C 105.812,207.145 106.812,208.145 107.5,209.5C 106.196,212.13 104.53,214.463 102.5,216.5C 98.4874,220.515 94.8207,224.848 91.5,229.5C 80.5428,241.807 71.5428,255.474 64.5,270.5C 57.2149,283.182 52.3816,296.849 50,311.5C 49.6667,312.167 49.3333,312.833 49,313.5C 48.7216,312.584 48.2216,311.918 47.5,311.5C 47.5,309.833 47.5,308.167 47.5,306.5C 50.758,288.324 57.0914,271.324 66.5,255.5C 74.8451,242.16 84.1784,229.493 94.5,217.5C 95.8333,216.833 96.8333,215.833 97.5,214.5C 99.8044,211.859 102.138,209.192 104.5,206.5 Z"/></g>
<g><path style="opacity:1" fill="#eeeeee" d="M 354.5,239.5 C 355.496,239.414 356.329,239.748 357,240.5C 357.454,243.612 359.287,245.278 362.5,245.5C 362.598,249.216 362.598,252.549 362.5,255.5C 362.177,261.627 362.843,267.627 364.5,273.5C 363.833,273.833 363.167,274.167 362.5,274.5C 363.025,275.192 363.692,275.692 364.5,276C 364.5,278 364.5,280 364.5,282C 362.664,287.505 360.164,292.671 357,297.5C 356.51,298.793 356.343,300.127 356.5,301.5C 355.448,301.351 354.448,301.517 353.5,302C 349.624,305.062 345.958,308.396 342.5,312C 339.736,312.532 337.07,313.366 334.5,314.5C 332.786,313.391 332.119,314.058 332.5,316.5C 327.45,316.876 322.45,317.542 317.5,318.5C 316.914,318.291 316.414,317.957 316,317.5C 315.261,318.574 314.261,319.241 313,319.5C 309.945,319.269 306.945,318.935 304,318.5C 302.342,318.675 301.009,319.342 300,320.5C 290.722,317.745 281.555,317.245 272.5,319C 270.045,321.383 269.045,324.049 269.5,327C 268.572,327.388 267.905,328.055 267.5,329C 266.839,331.464 266.339,333.964 266,336.5C 262.944,338.541 261.777,341.208 262.5,344.5C 260.886,348.227 258.386,351.227 255,353.5C 253.709,358.749 251.376,363.415 248,367.5C 246.89,369.037 245.39,369.703 243.5,369.5C 243.657,370.873 243.49,372.207 243,373.5C 238.9,376.969 235.4,380.969 232.5,385.5C 224.475,392.515 215.142,396.848 204.5,398.5C 196.354,397.463 188.354,395.796 180.5,393.5C 180.5,392.5 180.5,391.5 180.5,390.5C 179.448,390.649 178.448,390.483 177.5,390C 173.901,386.878 170.234,384.045 166.5,381.5C 163.971,376.114 161.138,370.78 158,365.5C 157.333,364.167 156.667,364.167 156,365.5C 154.756,359.832 152.922,354.499 150.5,349.5C 148.208,349.756 146.041,349.423 144,348.5C 139.556,351.372 134.722,353.372 129.5,354.5C 128.481,355.687 127.314,356.687 126,357.5C 125.667,357.167 125.333,356.833 125,356.5C 122.768,357.408 120.601,358.408 118.5,359.5C 117.558,359.392 116.725,359.059 116,358.5C 115.558,360.679 114.558,361.345 113,360.5C 109.58,361.586 106.247,362.919 103,364.5C 91.6803,365.784 80.3469,365.784 69,364.5C 61.4629,360.8 54.2962,356.466 47.5,351.5C 46.7568,350.092 45.9234,348.759 45,347.5C 44.6667,347.833 44.3333,348.167 44,348.5C 44.194,344.74 43.0273,341.574 40.5,339C 39.2904,330.491 39.2904,321.824 40.5,313C 41.9717,307.198 43.305,301.365 44.5,295.5C 45.5,295.5 46.5,295.5 47.5,295.5C 47.3359,292.813 47.5026,290.146 48,287.5C 51.5278,278.765 55.3611,270.099 59.5,261.5C 61.9575,260.876 63.6242,259.376 64.5,257C 63.433,254.573 64.0997,254.073 66.5,255.5C 57.0914,271.324 50.758,288.324 47.5,306.5C 46.9738,313.348 45.9738,320.181 44.5,327C 44.3932,329.221 45.0598,331.054 46.5,332.5C 46.5858,333.496 46.2524,334.329 45.5,335C 47.4541,338.974 49.4541,342.974 51.5,347C 56.1951,350.679 61.1951,353.846 66.5,356.5C 93.4907,360.539 119.157,355.706 143.5,342C 145.433,341.749 147.266,341.249 149,340.5C 151.827,342.494 154.327,344.828 156.5,347.5C 159.098,353.459 161.598,359.459 164,365.5C 167.997,369.84 171.664,374.506 175,379.5C 177.59,382.759 180.756,385.259 184.5,387C 189.937,388.526 195.27,390.359 200.5,392.5C 205.862,391.15 211.862,389.65 218.5,388C 221.034,386.151 223.7,384.485 226.5,383C 229.791,379.675 233.124,376.342 236.5,373C 236.167,372.667 235.833,372.333 235.5,372C 238.578,370.474 240.412,367.974 241,364.5C 242.087,366.932 242.587,366.598 242.5,363.5C 243.873,363.657 245.207,363.49 246.5,363C 248.329,360.428 250.329,358.094 252.5,356C 251.465,354.493 251.632,352.993 253,351.5C 257.24,345.326 260.407,339.326 262.5,333.5C 261.821,331.412 261.488,329.412 261.5,327.5C 262.167,327.167 262.833,326.833 263.5,326.5C 263.291,325.914 262.957,325.414 262.5,325C 265.398,321.544 267.065,317.878 267.5,314C 270.559,312.147 273.892,310.98 277.5,310.5C 279.472,311.157 281.305,311.157 283,310.5C 284.113,312.8 285.613,313.133 287.5,311.5C 289.029,311.529 290.196,312.196 291,313.5C 294.627,313.096 298.46,313.096 302.5,313.5C 316.768,313.608 330.435,310.442 343.5,304C 347.618,299.759 351.952,295.759 356.5,292C 356.043,291.586 355.709,291.086 355.5,290.5C 357.26,287.06 358.926,283.56 360.5,280C 359.663,278.989 359.33,277.822 359.5,276.5C 363.156,263.447 361.489,251.114 354.5,239.5 Z"/></g>
<g><path style="opacity:1" fill="#e3e3e4" d="M 203.5,280.5 C 208.459,283.124 208.792,286.457 204.5,290.5C 204.833,291.167 205.167,291.833 205.5,292.5C 203.8,295.039 202.3,297.705 201,300.5C 194.03,307.966 186.53,314.966 178.5,321.5C 176.522,323.983 174.856,326.65 173.5,329.5C 171.371,325.633 169.704,321.466 168.5,317C 179.777,307.856 190.443,298.023 200.5,287.5C 201.779,285.877 203.113,284.21 204.5,282.5C 204.137,281.817 203.804,281.15 203.5,280.5 Z"/></g>
<g><path style="opacity:1" fill="#3c3c3c" d="M 64.5,270.5 C 64.821,271.817 65.1543,273.151 65.5,274.5C 63.9815,277.714 62.6482,281.048 61.5,284.5C 62.0219,285.607 62.3552,286.774 62.5,288C 60.7098,292.936 60.0432,298.102 60.5,303.5C 59.2625,309.211 59.2625,314.878 60.5,320.5C 60.5,322.167 60.5,323.833 60.5,325.5C 59.5,325.5 58.5,325.5 57.5,325.5C 56.8617,327.46 56.8617,329.293 57.5,331C 56.6721,331.915 55.6721,332.581 54.5,333C 56.9386,333.533 57.6052,334.7 56.5,336.5C 48.9739,329.931 45.9739,321.597 47.5,311.5C 48.2216,311.918 48.7216,312.584 49,313.5C 49.3333,312.833 49.6667,312.167 50,311.5C 52.3816,296.849 57.2149,283.182 64.5,270.5 Z"/></g>
<g><path style="opacity:1" fill="#333232" d="M 203.5,280.5 C 203.804,281.15 204.137,281.817 204.5,282.5C 203.113,284.21 201.779,285.877 200.5,287.5C 200.489,285.983 199.823,284.816 198.5,284C 195.49,281.831 192.156,281.164 188.5,282C 181.962,288.042 175.295,293.875 168.5,299.5C 168.44,298.957 168.107,298.624 167.5,298.5C 165.49,300.171 163.157,300.838 160.5,300.5C 161.942,299.18 162.608,297.514 162.5,295.5C 163.222,295.918 163.722,296.584 164,297.5C 174.277,289.891 183.943,281.558 193,272.5C 196.366,275.368 199.866,278.035 203.5,280.5 Z"/></g>
<g><path style="opacity:1" fill="#e6e7e6" d="M 145.5,269.5 C 145.5,270.5 145.5,271.5 145.5,272.5C 145.181,277.363 145.514,282.03 146.5,286.5C 147.394,292.861 148.394,299.194 149.5,305.5C 149.586,306.496 149.252,307.329 148.5,308C 144.633,310.433 140.633,312.6 136.5,314.5C 137.229,311.72 137.896,308.887 138.5,306C 137.976,299.738 137.976,293.405 138.5,287C 137.833,286.333 137.167,285.667 136.5,285C 138.46,282.894 140.294,280.727 142,278.5C 142.945,278.905 143.612,279.572 144,280.5C 144.177,276.644 144.677,272.977 145.5,269.5 Z"/></g>
<g><path style="opacity:1" fill="#dcdcdc" d="M 213.5,270.5 C 213.328,271.492 213.662,272.158 214.5,272.5C 215.605,273.6 216.938,274.267 218.5,274.5C 222.268,277.225 226.268,279.725 230.5,282C 237.996,285.42 245.663,288.253 253.5,290.5C 252.602,295.534 250.935,300.201 248.5,304.5C 248.565,304.062 248.399,303.728 248,303.5C 247.667,304.167 247.333,304.833 247,305.5C 246.654,303.152 245.487,301.319 243.5,300C 236.661,296.489 229.661,293.156 222.5,290C 218.442,286.977 215.442,283.144 213.5,278.5C 212.869,276.487 212.869,273.82 213.5,270.5 Z"/></g>
<g><path style="opacity:1" fill="#0b0a0a" d="M 160.5,272.5 C 161.752,280.105 162.419,287.772 162.5,295.5C 162.608,297.514 161.942,299.18 160.5,300.5C 157.277,302.364 154.11,304.364 151,306.5C 150.617,305.944 150.117,305.611 149.5,305.5C 148.394,299.194 147.394,292.861 146.5,286.5C 146.5,283.167 146.5,279.833 146.5,276.5C 151.909,275.716 156.076,273.049 159,268.5C 159.21,270.058 159.71,271.391 160.5,272.5 Z"/></g>
<g><path style="opacity:1" fill="#4d4c4c" d="M 159.5,266.5 C 160.341,268.379 160.675,270.379 160.5,272.5C 159.71,271.391 159.21,270.058 159,268.5C 156.076,273.049 151.909,275.716 146.5,276.5C 146.5,279.833 146.5,283.167 146.5,286.5C 145.514,282.03 145.181,277.363 145.5,272.5C 146.873,272.657 148.207,272.49 149.5,272C 152.566,267.978 155.899,266.144 159.5,266.5 Z"/></g>
<g><path style="opacity:1" fill="#575657" d="M 219.5,259.5 C 221.987,260.323 224.321,261.323 226.5,262.5C 223.909,263.254 222.076,264.921 221,267.5C 219.882,269.765 219.049,272.099 218.5,274.5C 216.938,274.267 215.605,273.6 214.5,272.5C 217.172,268.475 218.838,264.142 219.5,259.5 Z"/></g>
<g><path style="opacity:1" fill="#686768" d="M 159.5,266.5 C 155.899,266.144 152.566,267.978 149.5,272C 148.207,272.49 146.873,272.657 145.5,272.5C 145.5,271.5 145.5,270.5 145.5,269.5C 149.816,266.86 154.149,264.194 158.5,261.5C 159.452,263.045 159.785,264.712 159.5,266.5 Z"/></g>
<g><path style="opacity:1" fill="#80807f" d="M 219.5,259.5 C 218.838,264.142 217.172,268.475 214.5,272.5C 213.662,272.158 213.328,271.492 213.5,270.5C 214.728,266.985 216.062,263.485 217.5,260C 218.031,258.282 218.698,258.115 219.5,259.5 Z"/></g>
<g><path style="opacity:1" fill="#545353" d="M 168.5,299.5 C 147.386,316.721 123.386,328.055 96.5,333.5C 89.4921,333.666 82.4921,333.5 75.5,333C 74.3774,331.956 73.0441,331.29 71.5,331C 72.4158,330.722 73.0825,330.222 73.5,329.5C 72.4489,328.778 71.7822,327.778 71.5,326.5C 73.6365,327.787 75.9699,328.621 78.5,329C 99.2194,329.818 118.553,324.984 136.5,314.5C 140.633,312.6 144.633,310.433 148.5,308C 149.252,307.329 149.586,306.496 149.5,305.5C 150.117,305.611 150.617,305.944 151,306.5C 154.11,304.364 157.277,302.364 160.5,300.5C 163.157,300.838 165.49,300.171 167.5,298.5C 168.107,298.624 168.44,298.957 168.5,299.5 Z"/></g>
<g><path style="opacity:1" fill="#282727" d="M 60.5,320.5 C 62.374,327.039 66.7073,330.039 73.5,329.5C 73.0825,330.222 72.4158,330.722 71.5,331C 73.0441,331.29 74.3774,331.956 75.5,333C 82.4921,333.5 89.4921,333.666 96.5,333.5C 90.3466,334.328 84.0133,334.828 77.5,335C 78.8333,335.667 78.8333,336.333 77.5,337C 75.7536,337.471 74.087,338.138 72.5,339C 72.4988,340.399 72.1654,341.899 71.5,343.5C 75.1619,344.902 78.8285,345.902 82.5,346.5C 72.4974,346.501 63.8308,343.168 56.5,336.5C 57.6052,334.7 56.9386,333.533 54.5,333C 55.6721,332.581 56.6721,331.915 57.5,331C 56.8617,329.293 56.8617,327.46 57.5,325.5C 58.5,325.5 59.5,325.5 60.5,325.5C 60.5,323.833 60.5,322.167 60.5,320.5 Z"/></g>
<g><path style="opacity:1" fill="#d7d7d7" d="M 47.5,306.5 C 47.5,308.167 47.5,309.833 47.5,311.5C 45.9739,321.597 48.9739,329.931 56.5,336.5C 63.8308,343.168 72.4974,346.501 82.5,346.5C 107.857,345.383 131.524,338.383 153.5,325.5C 157.816,336.468 162.983,347.135 169,357.5C 186.194,382.24 207.027,385.906 231.5,368.5C 231.047,369.458 230.381,370.292 229.5,371C 230.167,372 230.833,373 231.5,374C 223.036,380.816 213.536,385.649 203,388.5C 195.525,386.741 188.358,384.241 181.5,381C 178.641,377.735 175.475,374.902 172,372.5C 171.197,369.756 170.197,367.089 169,364.5C 166.871,365.863 166.371,365.529 167.5,363.5C 162.958,354.915 158.291,346.415 153.5,338C 148.395,336.235 143.895,337.402 140,341.5C 139.586,341.043 139.086,340.709 138.5,340.5C 135.833,342 133.167,343.5 130.5,345C 122.075,348.085 113.408,350.752 104.5,353C 98.6426,353.279 92.8092,353.779 87,354.5C 81.524,353.787 76.024,353.287 70.5,353C 69.354,352.355 68.354,351.522 67.5,350.5C 66.8333,350.833 66.1667,351.167 65.5,351.5C 55.9871,348.005 50.6538,341.338 49.5,331.5C 48.209,331.263 47.209,331.596 46.5,332.5C 45.0598,331.054 44.3932,329.221 44.5,327C 45.9738,320.181 46.9738,313.348 47.5,306.5 Z"/></g>
<g><path style="opacity:1" fill="#e1e1e2" d="M 359.5,276.5 C 359.33,277.822 359.663,278.989 360.5,280C 358.926,283.56 357.26,287.06 355.5,290.5C 355.709,291.086 356.043,291.586 356.5,292C 351.952,295.759 347.618,299.759 343.5,304C 330.435,310.442 316.768,313.608 302.5,313.5C 298.46,313.096 294.627,313.096 291,313.5C 290.196,312.196 289.029,311.529 287.5,311.5C 285.613,313.133 284.113,312.8 283,310.5C 281.305,311.157 279.472,311.157 277.5,310.5C 273.892,310.98 270.559,312.147 267.5,314C 267.065,317.878 265.398,321.544 262.5,325C 262.957,325.414 263.291,325.914 263.5,326.5C 262.833,326.833 262.167,327.167 261.5,327.5C 261.488,329.412 261.821,331.412 262.5,333.5C 260.407,339.326 257.24,345.326 253,351.5C 251.632,352.993 251.465,354.493 252.5,356C 250.329,358.094 248.329,360.428 246.5,363C 245.207,363.49 243.873,363.657 242.5,363.5C 242.587,366.598 242.087,366.932 241,364.5C 240.412,367.974 238.578,370.474 235.5,372C 235.833,372.333 236.167,372.667 236.5,373C 233.124,376.342 229.791,379.675 226.5,383C 223.7,384.485 221.034,386.151 218.5,388C 211.862,389.65 205.862,391.15 200.5,392.5C 195.27,390.359 189.937,388.526 184.5,387C 180.756,385.259 177.59,382.759 175,379.5C 171.664,374.506 167.997,369.84 164,365.5C 161.598,359.459 159.098,353.459 156.5,347.5C 154.327,344.828 151.827,342.494 149,340.5C 147.266,341.249 145.433,341.749 143.5,342C 119.157,355.706 93.4907,360.539 66.5,356.5C 61.1951,353.846 56.1951,350.679 51.5,347C 49.4541,342.974 47.4541,338.974 45.5,335C 46.2524,334.329 46.5858,333.496 46.5,332.5C 47.209,331.596 48.209,331.263 49.5,331.5C 50.6538,341.338 55.9871,348.005 65.5,351.5C 66.1667,351.167 66.8333,350.833 67.5,350.5C 68.354,351.522 69.354,352.355 70.5,353C 76.024,353.287 81.524,353.787 87,354.5C 92.8092,353.779 98.6426,353.279 104.5,353C 113.408,350.752 122.075,348.085 130.5,345C 133.167,343.5 135.833,342 138.5,340.5C 139.086,340.709 139.586,341.043 140,341.5C 143.895,337.402 148.395,336.235 153.5,338C 158.291,346.415 162.958,354.915 167.5,363.5C 166.371,365.529 166.871,365.863 169,364.5C 170.197,367.089 171.197,369.756 172,372.5C 175.475,374.902 178.641,377.735 181.5,381C 188.358,384.241 195.525,386.741 203,388.5C 213.536,385.649 223.036,380.816 231.5,374C 230.833,373 230.167,372 229.5,371C 230.381,370.292 231.047,369.458 231.5,368.5C 236.23,363.383 240.73,358.05 245,352.5C 256.241,335.015 265.075,316.349 271.5,296.5C 289.625,301.956 307.958,302.79 326.5,299C 341.033,296.42 352.033,288.92 359.5,276.5 Z"/></g>
</svg>
