<?xml version="1.0" standalone="no"?>
<!DOCTYPE svg PUBLIC "-//W3C//DTD SVG 20010904//EN"
 "http://www.w3.org/TR/2001/REC-SVG-20010904/DTD/svg10.dtd">
<svg version="1.0" xmlns="http://www.w3.org/2000/svg"
 width="1041.000000pt" height="1041.000000pt" viewBox="0 0 1041.000000 1041.000000"
 preserveAspectRatio="xMidYMid meet">

<g transform="translate(0.000000,1041.000000) scale(0.100000,-0.100000)"
fill="#000000" stroke="none">
<path d="M6987 9084 c-4 -4 -7 -17 -7 -29 0 -31 -11 -37 -32 -18 -23 20 -33
12 -18 -16 9 -18 8 -21 -12 -21 -13 0 -29 -4 -37 -9 -11 -7 -10 -11 7 -20 11
-6 28 -11 37 -11 13 0 11 -7 -11 -35 -32 -43 -25 -57 16 -27 l29 22 3 -32 c4
-41 25 -47 38 -12 l11 27 24 -23 c22 -20 25 -21 31 -6 3 9 -1 27 -10 41 -22
33 -21 35 14 35 37 0 41 27 6 36 -23 6 -24 6 -8 34 21 36 10 48 -24 26 -29
-20 -28 -20 -40 17 -5 16 -13 25 -17 21z"/>
<path d="M4995 8396 c-50 -21 -86 -131 -48 -143 6 -2 28 17 47 43 60 78 60
125 1 100z"/>
<path d="M2576 8368 c-6 -30 -7 -31 -26 -13 -22 19 -42 13 -22 -7 20 -20 14
-28 -23 -28 -19 0 -35 -4 -35 -9 0 -11 25 -21 51 -21 19 0 18 -2 -5 -37 -31
-45 -26 -54 14 -25 l29 22 3 -32 c4 -39 25 -48 34 -14 8 32 8 32 36 4 21 -21
23 -21 26 -5 2 10 -3 29 -12 42 -21 33 -21 35 13 35 38 0 49 18 16 26 -29 7
-29 7 -10 44 18 34 4 40 -29 15 -28 -21 -36 -19 -36 10 0 35 -16 31 -24 -7z"/>
<path d="M5570 8371 c-47 -11 -155 -45 -240 -76 -328 -121 -423 -140 -795
-155 -295 -12 -385 -22 -502 -56 -269 -78 -417 -262 -454 -565 -20 -170 21
-355 110 -491 114 -175 300 -288 474 -288 86 0 69 19 -54 60 -57 19 -125 47
-150 62 -208 123 -333 361 -316 604 21 299 168 484 440 555 99 26 124 23 54
-5 -96 -40 -165 -87 -235 -161 -244 -257 -234 -628 25 -865 71 -64 192 -132
273 -153 l53 -14 52 -121 c161 -371 370 -579 705 -702 172 -63 206 -72 295
-77 152 -9 251 28 466 172 197 133 267 159 424 158 322 -1 747 -242 1194 -678
247 -241 427 -453 578 -680 158 -238 275 -452 353 -642 21 -54 51 -125 65
-158 l26 -60 -5 80 c-7 126 -75 296 -216 540 -242 422 -566 819 -930 1138
-416 365 -867 586 -1251 614 -86 6 -90 7 -84 27 4 12 8 55 11 96 5 86 10 92
-69 -80 -80 -173 -181 -280 -332 -351 -403 -190 -878 36 -1125 536 -55 112
-150 372 -150 413 0 29 21 42 69 42 25 0 149 22 275 50 484 103 756 137 885
109 68 -14 99 -49 171 -190 86 -169 126 -209 205 -209 68 0 97 33 110 125 19
131 78 213 159 222 42 5 48 3 79 -28 44 -44 53 -92 32 -165 -20 -69 -81 -133
-151 -159 -67 -25 -73 -32 -32 -40 80 -15 183 44 227 129 27 52 38 139 27 201
-7 35 -67 107 -110 130 -17 10 -17 13 12 59 62 98 121 306 123 440 l1 51 10
-35 c5 -19 8 -80 6 -135 -4 -84 -10 -117 -42 -205 -52 -148 -53 -151 -17 -110
41 47 97 162 110 228 15 72 14 184 -3 264 -50 234 -254 476 -455 539 -97 30
-270 35 -381 10z"/>
<path d="M4714 8326 c-18 -48 46 -102 112 -94 46 5 40 30 -13 65 -64 41 -91
49 -99 29z"/>
<path d="M7276 7622 c-5 -15 -13 -21 -23 -18 -11 4 -13 2 -9 -9 4 -10 -1 -15
-14 -15 -11 0 -20 -4 -20 -10 0 -5 7 -10 16 -10 11 0 14 -5 9 -17 -18 -46 -19
-49 -4 -35 18 17 26 15 32 -9 6 -23 27 -17 27 8 0 14 3 14 20 -2 26 -24 33
-16 15 18 -13 26 -13 27 11 27 13 0 24 5 24 10 0 6 -7 10 -15 10 -18 0 -18 5
-5 31 8 15 7 19 -4 19 -8 0 -18 -4 -21 -10 -11 -17 -23 -11 -27 13 l-4 22 -8
-23z"/>
<path d="M4999 7077 c-34 -18 -45 -30 -47 -52 -3 -19 2 -33 14 -42 27 -20 50
-16 86 15 50 43 92 55 135 37 20 -8 44 -15 55 -15 16 0 17 3 8 20 -32 59 -170
80 -251 37z"/>
<path d="M8868 7094 c-5 -4 -8 -16 -8 -28 0 -15 -3 -17 -12 -8 -18 18 -30 14
-23 -8 5 -17 2 -20 -20 -20 -15 0 -24 -4 -20 -10 3 -5 15 -10 26 -10 23 0 24
-8 2 -32 -22 -25 -8 -36 17 -13 20 18 20 17 20 -8 0 -33 20 -46 27 -18 6 25
10 26 31 4 16 -16 17 -15 20 1 2 10 -1 23 -7 29 -17 17 -13 27 8 27 28 0 35
17 11 25 -17 5 -18 10 -9 27 14 25 6 33 -19 19 -28 -15 -30 -14 -34 10 -2 11
-6 17 -10 13z"/>
<path d="M4560 7019 c-64 -19 -92 -69 -55 -99 16 -13 33 -11 132 16 34 9 73
14 87 10 37 -9 125 -102 152 -160 26 -57 30 -113 13 -199 -6 -31 -9 -64 -5
-73 6 -16 8 -16 26 1 58 52 66 202 18 308 -29 63 -114 154 -169 182 -40 21
-149 29 -199 14z"/>
<path d="M5058 6853 c-43 -4 -48 -7 -48 -29 0 -23 2 -24 73 -24 80 0 113 14
101 43 -6 17 -17 18 -126 10z"/>
<path d="M4608 6823 c-7 -9 -7 -17 2 -28 10 -12 31 -15 94 -13 79 3 81 4 81
28 0 25 -1 25 -83 25 -56 1 -87 -3 -94 -12z"/>
<path d="M5067 6772 c-22 -24 -21 -55 1 -75 35 -32 72 -14 72 34 0 29 -23 59
-44 59 -7 0 -20 -8 -29 -18z"/>
<path d="M4673 6748 c-35 -45 -11 -101 40 -96 29 3 32 6 35 43 3 29 -1 43 -14
52 -23 16 -49 17 -61 1z"/>
<path d="M1590 6375 c0 -23 -2 -25 -21 -14 -19 10 -20 8 -14 -10 5 -18 2 -21
-21 -21 -30 0 -23 -15 9 -22 18 -3 18 -5 -3 -30 -24 -31 -9 -39 22 -11 17 15
18 14 18 -15 0 -36 15 -43 25 -11 7 19 8 20 26 3 27 -24 37 -8 17 27 -17 29
-17 29 7 29 27 0 34 17 10 26 -11 5 -12 10 -4 26 15 28 4 34 -26 14 -24 -16
-25 -16 -25 9 0 14 -4 25 -10 25 -5 0 -10 -11 -10 -25z"/>
<path d="M5155 6355 c-30 -21 -45 -25 -79 -20 -47 6 -69 -4 -64 -31 4 -23 82
-64 121 -64 50 0 110 80 93 125 -8 22 -28 19 -71 -10z"/>
<path d="M6423 5935 c-16 -11 -23 -26 -23 -50 0 -28 6 -37 30 -50 56 -29 100
-10 100 44 0 51 -66 85 -107 56z"/>
<path d="M4774 5912 c-112 -82 -254 -298 -254 -388 0 -58 25 -39 69 51 48 97
98 156 195 228 72 54 97 96 74 124 -16 20 -41 16 -84 -15z"/>
<path d="M5392 5658 c-17 -17 -15 -44 4 -62 42 -43 109 10 69 54 -20 22 -55
26 -73 8z"/>
<path d="M3087 5594 c-12 -12 7 -70 53 -159 59 -115 72 -135 87 -135 39 0 -31
224 -88 281 -19 19 -40 24 -52 13z"/>
<path d="M7057 5392 c-18 -19 -22 -59 -9 -78 10 -16 48 -34 70 -34 25 0 52 31
52 61 0 30 -9 43 -37 58 -31 16 -57 14 -76 -7z"/>
<path d="M5726 5348 c-35 -50 -12 -124 59 -186 73 -64 155 -81 155 -32 0 15
-13 26 -47 41 -55 23 -89 52 -109 92 -24 46 -7 51 54 16 99 -56 130 -69 171
-69 48 0 71 8 71 25 0 15 -14 20 -77 30 -23 4 -74 27 -119 56 -89 56 -133 63
-158 27z"/>
<path d="M2857 5333 c-24 -24 23 -60 98 -74 22 -4 69 -15 104 -24 70 -18 95
-10 75 23 -19 30 -152 81 -215 81 -31 1 -59 -2 -62 -6z"/>
<path d="M4987 5322 c-18 -19 -22 -59 -9 -78 10 -16 48 -34 70 -34 51 0 69 75
26 109 -33 26 -66 27 -87 3z"/>
<path d="M3815 5295 c-179 -46 -414 -142 -462 -187 -51 -48 -14 -108 65 -108
84 0 232 54 232 85 0 20 -35 19 -101 -4 -110 -38 -174 -36 -131 2 48 44 476
187 557 187 45 0 245 -37 350 -65 126 -33 285 -97 454 -182 173 -88 210 -95
134 -24 -121 113 -459 247 -757 301 -142 26 -229 25 -341 -5z"/>
<path d="M6365 5261 c-206 -54 -423 -158 -489 -233 -58 -66 -123 -182 -138
-245 l-12 -50 -135 28 c-529 111 -1033 190 -1071 169 -29 -16 51 -38 260 -70
113 -17 376 -65 585 -106 209 -41 451 -88 539 -104 87 -16 161 -31 163 -34 6
-5 11 -137 22 -546 7 -261 11 -301 28 -345 l20 -49 8 34 c7 34 0 487 -11 710
l-6 115 44 -3 c31 -3 48 1 57 12 17 20 6 36 -25 36 -15 0 -38 12 -55 29 -32
32 -37 67 -18 136 17 65 80 209 97 223 28 22 -1 35 -66 30 -84 -6 -158 -52
-223 -140 -61 -81 -114 -129 -134 -122 -21 8 -19 20 14 89 43 91 112 176 173
212 118 71 371 163 489 178 100 12 344 -63 577 -177 73 -36 81 -54 64 -136
-20 -93 -55 -156 -141 -245 -89 -92 -109 -135 -45 -98 100 60 227 206 262 303
10 29 23 48 32 48 28 -1 150 -58 212 -101 35 -23 96 -70 136 -103 41 -34 99
-81 129 -105 l56 -45 -29 54 c-72 133 -337 332 -639 480 -356 174 -547 219
-730 171z m-225 -325 c0 -2 -14 -33 -31 -70 -17 -36 -36 -95 -42 -131 -13 -75
-9 -73 -117 -49 -69 16 -72 18 -53 33 11 9 45 48 75 86 62 78 80 95 123 118
30 16 45 20 45 13z"/>
<path d="M2953 5135 c-92 -25 -159 -81 -138 -115 8 -12 46 -4 100 21 22 10 65
27 97 39 131 48 83 93 -59 55z"/>
<path d="M3809 5136 c-100 -53 -197 -118 -211 -143 -28 -49 -51 -146 -52 -224
l-1 -77 -49 -5 c-79 -7 -78 -4 -74 -292 2 -137 7 -256 12 -263 6 -10 12 -8 25
10 13 19 17 61 21 248 l5 225 40 3 c154 13 1736 -229 1951 -299 l32 -10 6
-132 c3 -73 10 -247 16 -387 9 -231 18 -317 37 -360 14 -31 21 128 22 513 1
246 -3 405 -9 417 -18 33 -159 69 -580 149 -370 70 -565 101 -630 100 l-55 -1
45 -14 c38 -11 39 -13 10 -9 -19 3 -111 17 -204 31 -93 13 -171 26 -173 28 -2
1 17 44 43 94 43 86 49 93 99 118 30 14 72 28 94 31 47 6 50 -1 29 -69 l-12
-40 -70 4 c-58 2 -71 0 -71 -12 0 -24 91 -46 365 -85 314 -46 957 -152 1182
-196 117 -23 169 -37 173 -47 3 -9 10 -178 15 -376 11 -413 14 -468 31 -516
13 -34 13 -35 20 -10 18 65 -2 872 -24 938 l-12 37 -170 31 c-94 18 -273 55
-400 82 -275 61 -551 112 -591 111 -16 0 36 -14 115 -29 128 -26 180 -41 140
-40 -33 1 -500 78 -506 84 -3 3 8 42 25 87 18 44 32 89 32 99 0 26 -18 34 -37
18 -23 -19 -63 -113 -63 -150 0 -30 -1 -31 -41 -25 -51 7 -52 8 -39 41 18 48
13 94 -12 107 -50 27 -163 5 -241 -47 -29 -19 -48 -45 -80 -112 -41 -84 -43
-87 -79 -90 l-37 -3 6 38 c21 135 82 216 213 283 14 7 41 26 60 43 l34 30 -47
-5 c-59 -7 -142 -47 -199 -97 -54 -48 -107 -156 -115 -237 -5 -50 -8 -55 -27
-50 -12 3 -28 6 -37 6 -22 0 -33 69 -23 141 9 65 47 111 145 171 63 39 94 77
76 94 -6 7 -166 -88 -207 -123 -49 -41 -70 -99 -70 -191 l0 -82 -40 0 -40 0 0
63 c0 73 23 171 49 207 9 14 42 39 72 55 79 43 116 72 122 95 7 27 -4 32 -34
16z m1188 -472 c-3 -3 -12 -4 -19 -1 -8 3 -5 6 6 6 11 1 17 -2 13 -5z"/>
<path d="M6830 4963 c-9 -2 -27 -27 -41 -56 -19 -41 -34 -57 -69 -74 -24 -13
-61 -23 -81 -23 -41 0 -74 -30 -98 -88 -20 -48 -8 -75 44 -100 51 -25 56 -38
20 -52 -36 -14 -81 -2 -115 30 -36 33 -37 61 -11 170 10 41 17 76 16 78 -10
12 -42 -20 -61 -62 -49 -105 -25 -206 59 -249 47 -24 127 -26 162 -3 28 19 43
62 28 85 -10 16 -64 56 -85 63 -8 3 -5 14 7 35 15 25 26 31 66 36 106 13 189
90 189 176 0 32 -6 39 -30 34z"/>
<path d="M6280 4858 c-6 -24 -18 -65 -26 -92 -32 -113 -11 -204 58 -246 39
-24 110 -27 128 -6 10 13 3 18 -44 31 -97 28 -117 86 -76 217 11 34 20 80 20
101 0 33 -3 37 -25 37 -20 0 -26 -7 -35 -42z"/>
<path d="M7412 4518 c-7 -7 -12 -27 -12 -45 0 -26 6 -36 30 -48 37 -19 55 -19
74 1 22 21 20 67 -2 87 -22 20 -73 22 -90 5z"/>
<path d="M6860 4395 c-14 -17 -22 -4 114 -200 168 -242 397 -463 509 -490 21
-6 27 -4 27 9 0 9 5 16 10 16 27 0 3 23 -60 56 -86 45 -232 168 -300 253 -27
34 -85 115 -127 179 -125 192 -144 212 -173 177z"/>
<path d="M4274 4350 c-20 -8 -39 -38 -31 -47 3 -2 26 1 52 7 39 9 67 7 149 -9
56 -11 151 -28 211 -37 61 -9 135 -21 165 -25 99 -16 162 7 129 47 -9 11 -22
13 -49 9 -20 -3 -87 3 -154 14 -65 12 -139 21 -165 21 -25 0 -77 7 -116 15
-77 16 -158 19 -191 5z"/>
<path d="M6387 4273 c-5 -9 10 -290 19 -340 6 -39 21 -43 30 -7 11 44 -4 337
-18 346 -16 10 -26 10 -31 1z"/>
<path d="M2549 4062 c6 -11 26 -25 43 -31 36 -12 176 -27 338 -36 58 -3 283
-16 500 -30 350 -22 887 -53 1205 -71 163 -9 398 -33 406 -41 4 -5 9 -127 11
-272 l3 -264 -385 8 c-381 9 -480 9 -521 4 -11 -2 -35 -23 -52 -47 -41 -56
-144 -108 -243 -122 -114 -15 -205 15 -300 100 -86 78 -124 89 -90 26 43 -81
170 -176 260 -197 30 -6 95 -10 148 -7 82 3 104 8 159 35 64 32 130 86 162
132 l16 24 243 -16 c559 -39 883 -46 908 -21 20 20 -14 43 -89 58 -41 9 -94
23 -118 32 l-43 17 0 261 c0 272 -3 301 -26 310 -18 7 -312 31 -554 46 -236
14 -715 44 -1295 80 -785 49 -699 47 -686 22z"/>
<path d="M7888 4059 c-46 -26 5 -104 51 -79 28 14 27 55 -1 74 -26 19 -27 19
-50 5z"/>
<path d="M2535 3724 c3 -132 8 -256 10 -276 l5 -38 -100 0 c-112 0 -115 -2
-126 -84 l-7 -45 -256 0 c-352 -1 -660 -14 -690 -30 -58 -32 -9 -36 472 -38
l472 -2 7 -238 c7 -263 22 -498 43 -672 8 -63 12 -117 10 -122 -3 -4 -20 -11
-38 -14 -38 -9 -107 -42 -107 -53 0 -9 376 -59 550 -72 527 -40 726 -48 1511
-61 511 -8 773 -9 945 -1 264 12 300 19 416 87 144 84 641 390 883 543 143 91
316 200 385 243 69 42 138 89 153 103 40 37 32 60 -23 66 l-45 5 -6 315 c-5
286 -11 359 -36 435 -15 46 -21 -54 -22 -408 -1 -430 11 -387 -136 -496 -126
-94 -237 -165 -745 -477 -398 -244 -465 -282 -475 -272 -14 13 -23 93 -30 243
l-6 150 108 62 c59 34 196 107 303 164 232 121 585 322 691 393 70 47 143 116
122 116 -4 0 -80 -41 -168 -91 -191 -109 -738 -389 -759 -389 -24 0 -37 34
-25 67 9 24 55 50 377 210 366 182 491 253 532 306 12 15 18 27 14 27 -5 0
-137 -65 -294 -144 -157 -79 -373 -183 -480 -231 -107 -48 -250 -115 -317
-149 l-121 -62 -7 91 c-6 79 -38 294 -50 335 -3 11 10 20 43 31 105 36 1264
599 1312 638 14 11 22 22 19 25 -7 7 -101 -24 -147 -48 -42 -22 -49 -20 -26 5
19 22 19 22 -6 15 -14 -4 -293 -141 -620 -304 l-595 -297 2 -210 c2 -115 8
-324 14 -462 18 -399 7 -521 -53 -555 -30 -17 -1286 -17 -1748 1 -555 21
-1079 62 -1154 91 -41 15 -72 95 -90 230 -29 222 -55 779 -42 904 l8 69 86 -6
c48 -4 159 -14 247 -23 190 -21 629 -25 659 -8 17 10 16 12 -15 22 -19 6 -95
16 -169 22 -74 6 -171 15 -215 21 -113 14 -369 60 -377 68 -3 3 -12 107 -18
231 -12 218 -21 269 -48 278 -11 3 -12 -40 -7 -234z"/>
<path d="M3287 3800 c-54 -14 -115 -47 -127 -70 -14 -25 -10 -25 75 5 118 42
169 33 284 -49 50 -35 90 -37 186 -6 92 29 177 28 332 -4 121 -26 246 -33 272
-17 8 5 11 16 7 28 -7 22 -48 33 -127 33 -25 0 -94 9 -154 20 -151 28 -243 26
-335 -5 -98 -33 -128 -32 -176 6 -22 17 -51 37 -66 45 -35 18 -124 25 -171 14z"/>
<path d="M7171 3310 c-66 -10 -80 -22 -50 -44 21 -14 105 -16 849 -16 454 1
868 5 921 9 91 8 159 30 159 51 0 12 -1798 11 -1879 0z"/>
<path d="M7931 2471 c-18 -5 1 -11 75 -25 264 -48 458 -89 554 -117 136 -39
258 -85 290 -109 l25 -19 -45 -47 c-61 -63 -179 -150 -460 -340 -262 -176
-429 -297 -508 -367 -29 -26 -55 -47 -57 -47 -2 0 -59 21 -127 46 -236 88
-395 114 -678 113 -172 0 -273 -8 -287 -22 -4 -4 0 -15 9 -24 11 -11 41 -17
92 -21 65 -4 74 -6 59 -18 -31 -22 -8 -25 105 -13 225 23 526 -24 767 -120 81
-33 70 -37 185 64 119 105 207 163 833 561 102 65 177 127 177 146 0 5 -13 2
-30 -7 -16 -9 -30 -13 -30 -9 0 3 14 22 30 41 37 42 40 90 8 120 -122 111
-816 262 -987 214z"/>
<path d="M7752 2431 c-24 -16 -83 -62 -130 -103 -48 -41 -149 -127 -225 -192
-189 -162 -376 -301 -509 -377 -133 -77 -154 -95 -137 -115 26 -32 70 -13 259
111 155 101 269 191 426 331 66 60 167 149 223 199 97 85 147 143 139 165 -2
5 -23 -3 -46 -19z"/>
<path d="M8079 2220 c-16 -11 -2 -30 22 -30 20 0 128 -29 259 -70 70 -21 129
-26 132 -10 0 6 1 15 2 21 1 12 -127 47 -264 72 -125 23 -138 25 -151 17z"/>
<path d="M7975 2099 c-10 -16 -3 -19 74 -35 39 -8 117 -30 173 -48 138 -45
166 -50 183 -36 23 19 18 39 -12 46 -16 4 -75 19 -133 34 -208 54 -271 63
-285 39z"/>
<path d="M7490 1762 c0 -6 24 -15 53 -21 28 -6 87 -23 129 -37 81 -27 133 -29
133 -5 0 10 -31 22 -95 38 -114 28 -220 41 -220 25z"/>
<path d="M7330 1679 c-22 -11 -14 -13 74 -26 54 -7 146 -29 205 -47 154 -49
158 -50 171 -25 7 11 9 23 6 26 -3 4 -63 21 -133 39 -140 36 -283 51 -323 33z"/>
</g>
</svg>
